<svg width="768" height="151" viewBox="0 0 768 151" fill="none" xmlns="http://www.w3.org/2000/svg">
<rect width="768" height="151" fill="#FAFAFA"/>
<mask id="mask0" mask-type="alpha" maskUnits="userSpaceOnUse" x="36" y="36" width="146" height="79">
<rect x="36" y="36" width="146" height="79" rx="2" fill="white"/>
</mask>
<g mask="url(#mask0)">
<g filter="url(#filter0_d)">
<rect x="36" y="36" width="146" height="79" rx="2" fill="#FFF9D7"/>
<rect x="37" y="37" width="144" height="77" rx="1" stroke="black" stroke-width="2"/>
</g>
<path d="M81.6191 77.5807H80.4297L80.252 72.0094L80.1768 69.8698L79.7598 71.1139L78.4404 74.6686H77.5996L76.3418 71.2506L75.9248 69.8698L75.8975 72.1051L75.7402 77.5807H74.5918L75.0293 68.6461H76.4717L77.6748 72.0094L78.0645 73.1442L78.4404 72.0094L79.7051 68.6461H81.1885L81.6191 77.5807ZM87.457 77.5807L87.4297 76.6578C87.056 77.027 86.6755 77.2936 86.2881 77.4576C85.9053 77.6217 85.502 77.7037 85.0781 77.7037C84.6862 77.7037 84.3512 77.6536 84.0732 77.5533C83.7952 77.4531 83.5651 77.3164 83.3828 77.1432C83.2051 76.9655 83.0729 76.7581 82.9863 76.5211C82.9043 76.2841 82.8633 76.0267 82.8633 75.7487C82.8633 75.0605 83.1185 74.5227 83.6289 74.1354C84.1439 73.7434 84.9027 73.5475 85.9053 73.5475H87.3271V72.9459C87.3271 72.5403 87.1973 72.2168 86.9375 71.9752C86.6777 71.7291 86.2812 71.6061 85.748 71.6061C85.3607 71.6061 84.9779 71.6494 84.5996 71.736C84.2259 71.8226 83.8385 71.9456 83.4375 72.1051V71.0319C83.5879 70.9772 83.7542 70.9248 83.9365 70.8746C84.1234 70.8199 84.3193 70.7721 84.5244 70.7311C84.7295 70.6901 84.9437 70.6582 85.167 70.6354C85.3903 70.608 85.6159 70.5944 85.8438 70.5944C86.2585 70.5944 86.6322 70.6399 86.9648 70.7311C87.2975 70.8222 87.5778 70.9612 87.8057 71.1481C88.0381 71.3349 88.2158 71.5696 88.3389 71.8522C88.4619 72.1347 88.5234 72.4674 88.5234 72.8502V77.5807H87.457ZM87.3271 74.4567H85.8164C85.5202 74.4567 85.265 74.4863 85.0508 74.5455C84.8366 74.6048 84.6611 74.6891 84.5244 74.7985C84.3877 74.9078 84.2852 75.04 84.2168 75.1949C84.153 75.3453 84.1211 75.5162 84.1211 75.7076C84.1211 75.8398 84.1416 75.9674 84.1826 76.0905C84.2236 76.2089 84.2897 76.316 84.3809 76.4117C84.472 76.5029 84.5905 76.5758 84.7363 76.6305C84.8822 76.6852 85.0599 76.7125 85.2695 76.7125C85.543 76.7125 85.8551 76.6305 86.2061 76.4664C86.5615 76.2978 86.9352 76.0335 87.3271 75.6735V74.4567ZM91.0254 70.7174H92.1123L92.1465 71.9821C92.5521 71.4944 92.9508 71.1412 93.3428 70.9225C93.7393 70.7037 94.138 70.5944 94.5391 70.5944C95.25 70.5944 95.7878 70.8245 96.1523 71.2848C96.5215 71.7451 96.6924 72.4287 96.665 73.3356H95.4619C95.4756 72.734 95.3867 72.2988 95.1953 72.0299C95.0085 71.7565 94.7327 71.6198 94.3682 71.6198C94.2087 71.6198 94.0469 71.6494 93.8828 71.7086C93.7233 71.7633 93.557 71.8545 93.3838 71.9821C93.2152 72.1051 93.0352 72.2646 92.8438 72.4606C92.6523 72.6565 92.4473 72.8935 92.2285 73.1715V77.5807H91.0254V70.7174ZM104.615 77.5807H102.981L99.7822 73.903V77.5807H98.5928V67.9215H99.7822V73.8551L102.865 70.7174H104.438L101.218 73.8824L104.615 77.5807ZM111.937 73.7867C111.937 73.9554 111.934 74.0966 111.93 74.2106C111.925 74.3245 111.918 74.4316 111.909 74.5319H107.09C107.09 75.2337 107.286 75.7737 107.678 76.152C108.07 76.5257 108.635 76.7125 109.373 76.7125C109.574 76.7125 109.774 76.7057 109.975 76.692C110.175 76.6738 110.369 76.651 110.556 76.6237C110.743 76.5963 110.92 76.5667 111.089 76.5348C111.262 76.4983 111.422 76.4596 111.567 76.4186V77.3961C111.244 77.4873 110.877 77.5602 110.467 77.6149C110.061 77.6741 109.64 77.7037 109.202 77.7037C108.614 77.7037 108.108 77.624 107.685 77.4645C107.261 77.305 106.912 77.0748 106.639 76.774C106.37 76.4687 106.169 76.0973 106.037 75.6598C105.91 75.2177 105.846 74.7187 105.846 74.1627C105.846 73.6796 105.914 73.2239 106.051 72.7955C106.192 72.3626 106.395 71.9843 106.659 71.6608C106.928 71.3326 107.256 71.0729 107.644 70.8815C108.031 70.6901 108.471 70.5944 108.963 70.5944C109.441 70.5944 109.865 70.6696 110.234 70.8199C110.604 70.9703 110.913 71.1845 111.164 71.4625C111.419 71.736 111.611 72.0709 111.738 72.4674C111.87 72.8593 111.937 73.2991 111.937 73.7867ZM110.699 73.6158C110.713 73.3105 110.683 73.0325 110.61 72.7819C110.537 72.5267 110.424 72.3079 110.269 72.1256C110.118 71.9433 109.929 71.802 109.701 71.7018C109.473 71.597 109.209 71.5446 108.908 71.5446C108.648 71.5446 108.411 71.5947 108.197 71.6949C107.983 71.7952 107.799 71.9365 107.644 72.1188C107.489 72.3011 107.363 72.5198 107.268 72.775C107.172 73.0302 107.113 73.3105 107.09 73.6158H110.699ZM119.367 77.485C119.098 77.5533 118.82 77.6012 118.533 77.6285C118.246 77.6604 117.954 77.6764 117.658 77.6764C116.797 77.6764 116.154 77.4827 115.73 77.0953C115.307 76.7034 115.095 76.1041 115.095 75.2975V71.7155H113.174V70.7174H115.095V68.8307L116.284 68.5231V70.7174H119.367V71.7155H116.284V75.2018C116.284 75.694 116.414 76.0631 116.674 76.3092C116.938 76.5507 117.326 76.6715 117.836 76.6715C118.055 76.6715 118.294 76.6556 118.554 76.6237C118.813 76.5872 119.085 76.5325 119.367 76.4596V77.485ZM123.872 71.7018H121.842V70.7174H125.075V76.5895H127.119V77.5807H121.616V76.5895H123.872V71.7018ZM124.289 67.8395C124.421 67.8395 124.544 67.8645 124.658 67.9147C124.772 67.9602 124.87 68.0263 124.952 68.1129C125.039 68.1995 125.105 68.2998 125.15 68.4137C125.201 68.5231 125.226 68.6438 125.226 68.776C125.226 68.9036 125.201 69.0244 125.15 69.1383C125.105 69.2522 125.039 69.3525 124.952 69.4391C124.87 69.5257 124.772 69.594 124.658 69.6442C124.544 69.6897 124.421 69.7125 124.289 69.7125C124.157 69.7125 124.034 69.6897 123.92 69.6442C123.806 69.594 123.706 69.5257 123.619 69.4391C123.537 69.3525 123.471 69.2522 123.421 69.1383C123.375 69.0244 123.353 68.9036 123.353 68.776C123.353 68.6438 123.375 68.5231 123.421 68.4137C123.471 68.2998 123.537 68.1995 123.619 68.1129C123.706 68.0263 123.806 67.9602 123.92 67.9147C124.034 67.8645 124.157 67.8395 124.289 67.8395ZM129.231 70.7174H130.291L130.339 71.8248C130.539 71.5878 130.733 71.3919 130.92 71.2369C131.107 71.0774 131.289 70.9498 131.467 70.8541C131.649 70.7584 131.834 70.6923 132.021 70.6559C132.207 70.6149 132.401 70.5944 132.602 70.5944C133.308 70.5944 133.841 70.804 134.201 71.2233C134.566 71.638 134.748 72.2646 134.748 73.1031V77.5807H133.559V73.1989C133.559 72.6611 133.458 72.2646 133.258 72.0094C133.057 71.7496 132.759 71.6198 132.362 71.6198C132.216 71.6198 132.073 71.6425 131.932 71.6881C131.795 71.7291 131.651 71.8043 131.501 71.9137C131.351 72.0185 131.187 72.1621 131.009 72.3444C130.836 72.5267 130.64 72.7545 130.421 73.028V77.5807H129.231V70.7174ZM141.871 71.6881C141.999 71.8476 142.097 72.0345 142.165 72.2487C142.238 72.4583 142.274 72.6862 142.274 72.9323C142.274 73.2877 142.208 73.6136 142.076 73.9098C141.949 74.2015 141.766 74.4521 141.529 74.6617C141.292 74.8714 141.007 75.0354 140.675 75.1539C140.347 75.2679 139.984 75.3248 139.588 75.3248C139.301 75.3248 139.032 75.2952 138.781 75.236C138.531 75.1722 138.332 75.0947 138.187 75.0035C138.1 75.1311 138.027 75.2519 137.968 75.3658C137.909 75.4798 137.879 75.6074 137.879 75.7487C137.879 75.9218 137.961 76.0654 138.125 76.1793C138.294 76.2933 138.515 76.3548 138.788 76.3639L140.593 76.4323C140.935 76.4414 141.249 76.4847 141.536 76.5621C141.828 76.6396 142.076 76.7513 142.281 76.8971C142.491 77.0429 142.653 77.2229 142.767 77.4371C142.885 77.6513 142.944 77.8997 142.944 78.1823C142.944 78.4876 142.878 78.777 142.746 79.0504C142.614 79.3239 142.409 79.5631 142.131 79.7682C141.857 79.9778 141.509 80.1442 141.085 80.2672C140.661 80.3903 140.158 80.4518 139.574 80.4518C139.018 80.4518 138.544 80.4062 138.152 80.3151C137.765 80.2285 137.446 80.1054 137.195 79.9459C136.945 79.791 136.762 79.6041 136.648 79.3854C136.535 79.1712 136.478 78.9342 136.478 78.6744C136.478 78.3418 136.555 78.0501 136.71 77.7994C136.865 77.5488 137.104 77.3073 137.428 77.0748C137.309 77.0201 137.207 76.9518 137.12 76.8698C137.034 76.7877 136.963 76.6989 136.908 76.6031C136.854 76.5029 136.812 76.3981 136.785 76.2887C136.758 76.1793 136.744 76.0722 136.744 75.9674C136.744 75.6712 136.812 75.4 136.949 75.1539C137.09 74.9078 137.257 74.6754 137.448 74.4567C137.362 74.3518 137.284 74.2493 137.216 74.149C137.152 74.0488 137.095 73.9417 137.045 73.8278C136.999 73.7093 136.963 73.5839 136.936 73.4518C136.913 73.3151 136.901 73.1601 136.901 72.9869C136.901 72.6315 136.965 72.3079 137.093 72.0162C137.225 71.72 137.407 71.4671 137.64 71.2574C137.877 71.0478 138.159 70.886 138.487 70.7721C138.82 70.6536 139.187 70.5944 139.588 70.5944C139.757 70.5944 139.918 70.6058 140.073 70.6285C140.228 70.6513 140.365 70.6809 140.483 70.7174H142.972V71.6881H141.871ZM137.742 78.5719C137.742 78.8955 137.911 79.1302 138.248 79.276C138.585 79.4264 139.055 79.5016 139.656 79.5016C140.035 79.5016 140.351 79.4674 140.606 79.399C140.866 79.3307 141.074 79.2395 141.229 79.1256C141.388 79.0162 141.502 78.8886 141.57 78.7428C141.639 78.6015 141.673 78.4557 141.673 78.3053C141.673 78.0273 141.559 77.8222 141.331 77.6901C141.103 77.5579 140.755 77.4804 140.285 77.4576L138.494 77.3961C138.344 77.4964 138.218 77.5944 138.118 77.6901C138.022 77.7858 137.947 77.8815 137.893 77.9772C137.838 78.0774 137.799 78.1754 137.776 78.2711C137.754 78.3714 137.742 78.4716 137.742 78.5719ZM138.104 72.9596C138.104 73.1783 138.141 73.3789 138.214 73.5612C138.287 73.7434 138.389 73.8984 138.521 74.026C138.654 74.1536 138.809 74.2539 138.986 74.3268C139.169 74.3951 139.369 74.4293 139.588 74.4293C139.825 74.4293 140.035 74.3906 140.217 74.3131C140.404 74.2311 140.559 74.1217 140.682 73.985C140.809 73.8483 140.905 73.691 140.969 73.5133C141.037 73.3356 141.071 73.151 141.071 72.9596C141.071 72.7408 141.035 72.5403 140.962 72.358C140.889 72.1757 140.786 72.0208 140.654 71.8932C140.522 71.7656 140.365 71.6676 140.183 71.5992C140.005 71.5263 139.807 71.4899 139.588 71.4899C139.351 71.4899 139.139 71.5309 138.952 71.6129C138.77 71.6949 138.615 71.8043 138.487 71.941C138.364 72.0732 138.269 72.2281 138.2 72.4059C138.136 72.5836 138.104 72.7682 138.104 72.9596Z" fill="black"/>
</g>
<path d="M218.707 75.7071C219.098 75.3166 219.098 74.6834 218.707 74.2929L212.343 67.9289C211.953 67.5384 211.319 67.5384 210.929 67.9289C210.538 68.3195 210.538 68.9526 210.929 69.3431L216.586 75L210.929 80.6569C210.538 81.0474 210.538 81.6805 210.929 82.0711C211.319 82.4616 211.953 82.4616 212.343 82.0711L218.707 75.7071ZM182 76H218V74H182V76Z" fill="black"/>
<mask id="mask1" mask-type="alpha" maskUnits="userSpaceOnUse" x="219" y="36" width="146" height="79">
<rect x="219" y="36" width="146" height="79" rx="2" fill="white"/>
</mask>
<g mask="url(#mask1)">
<g filter="url(#filter1_d)">
<rect x="219" y="36" width="146" height="79" rx="2" fill="#FFF9D7"/>
<rect x="220" y="37" width="144" height="77" rx="1" stroke="black" stroke-width="2"/>
</g>
<path d="M275.628 67.2861C275.628 67.6781 275.548 68.0472 275.389 68.3936C275.229 68.7354 274.99 69.0361 274.671 69.2959C274.352 69.5511 273.951 69.7539 273.468 69.9043C272.985 70.0501 272.422 70.123 271.779 70.123C271.424 70.123 271.105 70.1117 270.822 70.0889C270.54 70.0661 270.275 70.0365 270.029 70V68.9336C270.312 68.9837 270.61 69.0225 270.925 69.0498C271.239 69.0771 271.561 69.0908 271.889 69.0908C272.335 69.0908 272.716 69.0521 273.03 68.9746C273.349 68.8926 273.609 68.7764 273.81 68.626C274.01 68.4756 274.156 68.2933 274.247 68.0791C274.338 67.8649 274.384 67.6234 274.384 67.3545C274.384 67.1084 274.329 66.8942 274.22 66.7119C274.11 66.5296 273.955 66.377 273.755 66.2539C273.559 66.1309 273.322 66.0397 273.044 65.9805C272.771 65.9167 272.47 65.8848 272.142 65.8848H271.123V64.9072H272.155C272.424 64.9072 272.668 64.873 272.887 64.8047C273.11 64.7318 273.299 64.6292 273.454 64.4971C273.614 64.3649 273.734 64.2031 273.816 64.0117C273.903 63.8158 273.946 63.5947 273.946 63.3486C273.946 62.8701 273.8 62.5215 273.509 62.3027C273.217 62.084 272.789 61.9746 272.224 61.9746C271.923 61.9746 271.613 62.0042 271.294 62.0635C270.975 62.1227 270.633 62.2116 270.269 62.3301V61.291C270.424 61.2363 270.588 61.1885 270.761 61.1475C270.938 61.1019 271.114 61.0654 271.287 61.0381C271.465 61.0062 271.64 60.9834 271.813 60.9697C271.987 60.9515 272.153 60.9424 272.312 60.9424C272.786 60.9424 273.203 60.9948 273.563 61.0996C273.924 61.1999 274.224 61.3457 274.466 61.5371C274.707 61.7285 274.89 61.9609 275.013 62.2344C275.136 62.5078 275.197 62.8154 275.197 63.1572C275.197 63.6676 275.065 64.096 274.801 64.4424C274.541 64.7887 274.183 65.0645 273.728 65.2695C273.96 65.306 274.188 65.3789 274.411 65.4883C274.639 65.5977 274.842 65.7389 275.02 65.9121C275.202 66.0807 275.348 66.2812 275.457 66.5137C275.571 66.7461 275.628 67.0036 275.628 67.2861ZM283.701 65.5361C283.701 66.2197 283.633 66.8441 283.496 67.4092C283.359 67.9697 283.152 68.4528 282.874 68.8584C282.596 69.2594 282.25 69.5716 281.835 69.7949C281.425 70.0137 280.942 70.123 280.386 70.123C279.907 70.123 279.472 70.0342 279.08 69.8564C278.688 69.6742 278.353 69.3962 278.075 69.0225C277.797 68.6488 277.583 68.1725 277.433 67.5938C277.282 67.015 277.207 66.3291 277.207 65.5361C277.207 64.8525 277.275 64.2282 277.412 63.6631C277.553 63.098 277.761 62.6149 278.034 62.2139C278.312 61.8083 278.659 61.4961 279.073 61.2773C279.488 61.054 279.971 60.9424 280.522 60.9424C281.001 60.9424 281.436 61.0335 281.828 61.2158C282.22 61.3936 282.555 61.6715 282.833 62.0498C283.111 62.4235 283.325 62.8997 283.476 63.4785C283.626 64.0573 283.701 64.7432 283.701 65.5361ZM282.498 65.5771C282.498 65.4222 282.491 65.2695 282.478 65.1191C282.468 64.9642 282.457 64.8138 282.443 64.668L278.663 67.4775C278.731 67.7145 278.818 67.9333 278.923 68.1338C279.028 68.3343 279.153 68.5075 279.299 68.6533C279.449 68.7946 279.618 68.9062 279.805 68.9883C279.996 69.0658 280.213 69.1045 280.454 69.1045C280.764 69.1045 281.044 69.0293 281.295 68.8789C281.55 68.7285 281.767 68.5052 281.944 68.209C282.122 67.9128 282.259 67.5459 282.354 67.1084C282.45 66.6663 282.498 66.1559 282.498 65.5771ZM278.41 65.4951C278.41 65.6364 278.41 65.7777 278.41 65.9189C278.415 66.0602 278.424 66.1969 278.438 66.3291L282.218 63.5332C282.149 63.3008 282.063 63.0889 281.958 62.8975C281.853 62.7061 281.728 62.542 281.582 62.4053C281.436 62.264 281.27 62.1546 281.083 62.0771C280.896 61.9997 280.687 61.9609 280.454 61.9609C280.144 61.9609 279.862 62.0361 279.606 62.1865C279.356 62.3369 279.142 62.5625 278.964 62.8633C278.786 63.1595 278.649 63.5286 278.554 63.9707C278.458 64.4082 278.41 64.9163 278.41 65.4951ZM299.198 65.4336C299.198 65.862 299.164 66.2721 299.096 66.6641C299.032 67.056 298.927 67.4206 298.781 67.7578C298.635 68.0951 298.446 68.4027 298.214 68.6807C297.981 68.9541 297.697 69.1888 297.359 69.3848C297.022 69.5807 296.63 69.7334 296.184 69.8428C295.737 69.9476 295.229 70 294.659 70H292.745V61.0654H295.049C296.443 61.0654 297.482 61.4255 298.166 62.1455C298.854 62.861 299.198 63.957 299.198 65.4336ZM297.92 65.5225C297.92 64.889 297.861 64.3535 297.742 63.916C297.624 63.4785 297.444 63.1253 297.202 62.8564C296.961 62.5876 296.658 62.3939 296.293 62.2754C295.928 62.1523 295.5 62.0908 295.008 62.0908H293.962V68.9473H294.871C296.904 68.9473 297.92 67.8057 297.92 65.5225ZM305.2 70L305.173 69.0771C304.799 69.4463 304.419 69.7129 304.031 69.877C303.648 70.041 303.245 70.123 302.821 70.123C302.429 70.123 302.094 70.0729 301.816 69.9727C301.538 69.8724 301.308 69.7357 301.126 69.5625C300.948 69.3848 300.816 69.1774 300.729 68.9404C300.647 68.7035 300.606 68.446 300.606 68.168C300.606 67.4798 300.862 66.9421 301.372 66.5547C301.887 66.1628 302.646 65.9668 303.648 65.9668H305.07V65.3652C305.07 64.9596 304.94 64.6361 304.681 64.3945C304.421 64.1484 304.024 64.0254 303.491 64.0254C303.104 64.0254 302.721 64.0687 302.343 64.1553C301.969 64.2419 301.582 64.3649 301.181 64.5244V63.4512C301.331 63.3965 301.497 63.3441 301.68 63.2939C301.867 63.2393 302.062 63.1914 302.268 63.1504C302.473 63.1094 302.687 63.0775 302.91 63.0547C303.133 63.0273 303.359 63.0137 303.587 63.0137C304.002 63.0137 304.375 63.0592 304.708 63.1504C305.041 63.2415 305.321 63.3805 305.549 63.5674C305.781 63.7542 305.959 63.9889 306.082 64.2715C306.205 64.554 306.267 64.8867 306.267 65.2695V70H305.2ZM305.07 66.876H303.56C303.263 66.876 303.008 66.9056 302.794 66.9648C302.58 67.0241 302.404 67.1084 302.268 67.2178C302.131 67.3271 302.028 67.4593 301.96 67.6143C301.896 67.7646 301.864 67.9355 301.864 68.127C301.864 68.2591 301.885 68.3867 301.926 68.5098C301.967 68.6283 302.033 68.7354 302.124 68.8311C302.215 68.9222 302.334 68.9951 302.479 69.0498C302.625 69.1045 302.803 69.1318 303.013 69.1318C303.286 69.1318 303.598 69.0498 303.949 68.8857C304.305 68.7171 304.678 68.4528 305.07 68.0928V66.876ZM314.593 63.1367L312.255 69.2754C312.013 69.8997 311.763 70.4375 311.503 70.8887C311.248 71.3398 310.967 71.709 310.662 71.9961C310.357 72.2878 310.022 72.502 309.657 72.6387C309.293 72.7754 308.885 72.8438 308.434 72.8438C308.315 72.8438 308.208 72.8415 308.112 72.8369C308.017 72.8324 307.912 72.8255 307.798 72.8164V71.7363C307.898 71.75 308.007 71.7614 308.126 71.7705C308.244 71.7842 308.37 71.791 308.502 71.791C308.721 71.791 308.924 71.7591 309.11 71.6953C309.302 71.6315 309.482 71.5267 309.65 71.3809C309.819 71.2396 309.981 71.055 310.136 70.8271C310.291 70.5993 310.441 70.3236 310.587 70L307.846 63.1367H309.199L310.936 67.6758L311.284 68.7422L311.681 67.6484L313.287 63.1367H314.593ZM259.953 78.1045H256.159V81.0029H259.755V82.0215H256.159V86H254.915V77.0654H259.953V78.1045ZM262.585 79.1367H263.672L263.706 80.4014C264.112 79.9137 264.51 79.5605 264.902 79.3418C265.299 79.123 265.698 79.0137 266.099 79.0137C266.81 79.0137 267.347 79.2438 267.712 79.7041C268.081 80.1644 268.252 80.848 268.225 81.7549H267.021C267.035 81.1533 266.946 80.7181 266.755 80.4492C266.568 80.1758 266.292 80.0391 265.928 80.0391C265.768 80.0391 265.606 80.0687 265.442 80.1279C265.283 80.1826 265.117 80.2738 264.943 80.4014C264.775 80.5244 264.595 80.6839 264.403 80.8799C264.212 81.0758 264.007 81.3128 263.788 81.5908V86H262.585V79.1367ZM275.799 82.2061C275.799 82.3747 275.797 82.516 275.792 82.6299C275.787 82.7438 275.781 82.8509 275.771 82.9512H270.952C270.952 83.653 271.148 84.193 271.54 84.5713C271.932 84.945 272.497 85.1318 273.235 85.1318C273.436 85.1318 273.636 85.125 273.837 85.1113C274.037 85.0931 274.231 85.0703 274.418 85.043C274.605 85.0156 274.783 84.986 274.951 84.9541C275.124 84.9176 275.284 84.8789 275.43 84.8379V85.8154C275.106 85.9066 274.739 85.9795 274.329 86.0342C273.924 86.0934 273.502 86.123 273.064 86.123C272.477 86.123 271.971 86.0433 271.547 85.8838C271.123 85.7243 270.774 85.4941 270.501 85.1934C270.232 84.888 270.032 84.5166 269.899 84.0791C269.772 83.637 269.708 83.138 269.708 82.582C269.708 82.099 269.776 81.6432 269.913 81.2148C270.054 80.7819 270.257 80.4036 270.521 80.0801C270.79 79.752 271.118 79.4922 271.506 79.3008C271.893 79.1094 272.333 79.0137 272.825 79.0137C273.304 79.0137 273.728 79.0889 274.097 79.2393C274.466 79.3896 274.776 79.6038 275.026 79.8818C275.282 80.1553 275.473 80.4902 275.601 80.8867C275.733 81.2786 275.799 81.7184 275.799 82.2061ZM274.562 82.0352C274.575 81.7298 274.546 81.4518 274.473 81.2012C274.4 80.946 274.286 80.7272 274.131 80.5449C273.98 80.3626 273.791 80.2214 273.563 80.1211C273.336 80.0163 273.071 79.9639 272.771 79.9639C272.511 79.9639 272.274 80.014 272.06 80.1143C271.845 80.2145 271.661 80.3558 271.506 80.5381C271.351 80.7204 271.226 80.9391 271.13 81.1943C271.034 81.4495 270.975 81.7298 270.952 82.0352H274.562ZM283.496 82.2061C283.496 82.3747 283.494 82.516 283.489 82.6299C283.485 82.7438 283.478 82.8509 283.469 82.9512H278.649C278.649 83.653 278.845 84.193 279.237 84.5713C279.629 84.945 280.194 85.1318 280.933 85.1318C281.133 85.1318 281.334 85.125 281.534 85.1113C281.735 85.0931 281.928 85.0703 282.115 85.043C282.302 85.0156 282.48 84.986 282.648 84.9541C282.822 84.9176 282.981 84.8789 283.127 84.8379V85.8154C282.803 85.9066 282.437 85.9795 282.026 86.0342C281.621 86.0934 281.199 86.123 280.762 86.123C280.174 86.123 279.668 86.0433 279.244 85.8838C278.82 85.7243 278.472 85.4941 278.198 85.1934C277.929 84.888 277.729 84.5166 277.597 84.0791C277.469 83.637 277.405 83.138 277.405 82.582C277.405 82.099 277.474 81.6432 277.61 81.2148C277.752 80.7819 277.954 80.4036 278.219 80.0801C278.488 79.752 278.816 79.4922 279.203 79.3008C279.59 79.1094 280.03 79.0137 280.522 79.0137C281.001 79.0137 281.425 79.0889 281.794 79.2393C282.163 79.3896 282.473 79.6038 282.724 79.8818C282.979 80.1553 283.17 80.4902 283.298 80.8867C283.43 81.2786 283.496 81.7184 283.496 82.2061ZM282.259 82.0352C282.272 81.7298 282.243 81.4518 282.17 81.2012C282.097 80.946 281.983 80.7272 281.828 80.5449C281.678 80.3626 281.489 80.2214 281.261 80.1211C281.033 80.0163 280.769 79.9639 280.468 79.9639C280.208 79.9639 279.971 80.014 279.757 80.1143C279.543 80.2145 279.358 80.3558 279.203 80.5381C279.048 80.7204 278.923 80.9391 278.827 81.1943C278.731 81.4495 278.672 81.7298 278.649 82.0352H282.259ZM299.109 78.1045H296.464V86H295.233V78.1045H292.588V77.0654H299.109V78.1045ZM301.071 79.1367H302.158L302.192 80.4014C302.598 79.9137 302.997 79.5605 303.389 79.3418C303.785 79.123 304.184 79.0137 304.585 79.0137C305.296 79.0137 305.834 79.2438 306.198 79.7041C306.567 80.1644 306.738 80.848 306.711 81.7549H305.508C305.521 81.1533 305.433 80.7181 305.241 80.4492C305.054 80.1758 304.779 80.0391 304.414 80.0391C304.255 80.0391 304.093 80.0687 303.929 80.1279C303.769 80.1826 303.603 80.2738 303.43 80.4014C303.261 80.5244 303.081 80.6839 302.89 80.8799C302.698 81.0758 302.493 81.3128 302.274 81.5908V86H301.071V79.1367ZM310.826 80.1211H308.796V79.1367H312.029V85.0088H314.073V86H308.57V85.0088H310.826V80.1211ZM311.243 76.2588C311.375 76.2588 311.498 76.2839 311.612 76.334C311.726 76.3796 311.824 76.4456 311.906 76.5322C311.993 76.6188 312.059 76.7191 312.104 76.833C312.155 76.9424 312.18 77.0632 312.18 77.1953C312.18 77.3229 312.155 77.4437 312.104 77.5576C312.059 77.6715 311.993 77.7718 311.906 77.8584C311.824 77.945 311.726 78.0133 311.612 78.0635C311.498 78.109 311.375 78.1318 311.243 78.1318C311.111 78.1318 310.988 78.109 310.874 78.0635C310.76 78.0133 310.66 77.945 310.573 77.8584C310.491 77.7718 310.425 77.6715 310.375 77.5576C310.329 77.4437 310.307 77.3229 310.307 77.1953C310.307 77.0632 310.329 76.9424 310.375 76.833C310.425 76.7191 310.491 76.6188 310.573 76.5322C310.66 76.4456 310.76 76.3796 310.874 76.334C310.988 76.2839 311.111 76.2588 311.243 76.2588ZM320.595 86L320.567 85.0771C320.194 85.4463 319.813 85.7129 319.426 85.877C319.043 86.041 318.64 86.123 318.216 86.123C317.824 86.123 317.489 86.0729 317.211 85.9727C316.933 85.8724 316.703 85.7357 316.521 85.5625C316.343 85.3848 316.211 85.1774 316.124 84.9404C316.042 84.7035 316.001 84.446 316.001 84.168C316.001 83.4798 316.256 82.9421 316.767 82.5547C317.282 82.1628 318.04 81.9668 319.043 81.9668H320.465V81.3652C320.465 80.9596 320.335 80.6361 320.075 80.3945C319.815 80.1484 319.419 80.0254 318.886 80.0254C318.498 80.0254 318.116 80.0687 317.737 80.1553C317.364 80.2419 316.976 80.3649 316.575 80.5244V79.4512C316.726 79.3965 316.892 79.3441 317.074 79.2939C317.261 79.2393 317.457 79.1914 317.662 79.1504C317.867 79.1094 318.081 79.0775 318.305 79.0547C318.528 79.0273 318.754 79.0137 318.981 79.0137C319.396 79.0137 319.77 79.0592 320.103 79.1504C320.435 79.2415 320.715 79.3805 320.943 79.5674C321.176 79.7542 321.354 79.9889 321.477 80.2715C321.6 80.554 321.661 80.8867 321.661 81.2695V86H320.595ZM320.465 82.876H318.954C318.658 82.876 318.403 82.9056 318.188 82.9648C317.974 83.0241 317.799 83.1084 317.662 83.2178C317.525 83.3271 317.423 83.4593 317.354 83.6143C317.291 83.7646 317.259 83.9355 317.259 84.127C317.259 84.2591 317.279 84.3867 317.32 84.5098C317.361 84.6283 317.427 84.7354 317.519 84.8311C317.61 84.9222 317.728 84.9951 317.874 85.0498C318.02 85.1045 318.198 85.1318 318.407 85.1318C318.681 85.1318 318.993 85.0498 319.344 84.8857C319.699 84.7171 320.073 84.4528 320.465 84.0928V82.876ZM326.221 77.3184H324.19V76.3408H327.424V85.0088H329.468V86H323.965V85.0088H326.221V77.3184Z" fill="black"/>
</g>
<mask id="mask2" mask-type="alpha" maskUnits="userSpaceOnUse" x="585" y="36" width="146" height="79">
<rect x="585" y="36" width="146" height="79" rx="2" fill="white"/>
</mask>
<g mask="url(#mask2)">
<g filter="url(#filter2_d)">
<rect x="585" y="36" width="146" height="79" rx="2" fill="#FFF9D7"/>
<rect x="586" y="37" width="144" height="77" rx="1" stroke="black" stroke-width="2"/>
</g>
<path d="M638.688 70H637.362L636.74 68.0518H633.021L632.393 70H631.128L634.095 61.0654H635.763L638.688 70ZM636.392 66.9648L634.881 62.1865L633.37 66.9648H636.392ZM640.131 63.1367H641.218L641.252 64.4014C641.658 63.9137 642.056 63.5605 642.448 63.3418C642.845 63.123 643.243 63.0137 643.645 63.0137C644.355 63.0137 644.893 63.2438 645.258 63.7041C645.627 64.1644 645.798 64.848 645.771 65.7549H644.567C644.581 65.1533 644.492 64.7181 644.301 64.4492C644.114 64.1758 643.838 64.0391 643.474 64.0391C643.314 64.0391 643.152 64.0687 642.988 64.1279C642.829 64.1826 642.662 64.2738 642.489 64.4014C642.321 64.5244 642.141 64.6839 641.949 64.8799C641.758 65.0758 641.553 65.3128 641.334 65.5908V70H640.131V63.1367ZM647.828 63.1367H648.915L648.949 64.4014C649.355 63.9137 649.754 63.5605 650.146 63.3418C650.542 63.123 650.941 63.0137 651.342 63.0137C652.053 63.0137 652.59 63.2438 652.955 63.7041C653.324 64.1644 653.495 64.848 653.468 65.7549H652.265C652.278 65.1533 652.189 64.7181 651.998 64.4492C651.811 64.1758 651.535 64.0391 651.171 64.0391C651.011 64.0391 650.85 64.0687 650.686 64.1279C650.526 64.1826 650.36 64.2738 650.187 64.4014C650.018 64.5244 649.838 64.6839 649.646 64.8799C649.455 65.0758 649.25 65.3128 649.031 65.5908V70H647.828V63.1367ZM659.654 70L659.627 69.0771C659.253 69.4463 658.873 69.7129 658.485 69.877C658.103 70.041 657.699 70.123 657.275 70.123C656.883 70.123 656.549 70.0729 656.271 69.9727C655.993 69.8724 655.762 69.7357 655.58 69.5625C655.402 69.3848 655.27 69.1774 655.184 68.9404C655.102 68.7035 655.061 68.446 655.061 68.168C655.061 67.4798 655.316 66.9421 655.826 66.5547C656.341 66.1628 657.1 65.9668 658.103 65.9668H659.524V65.3652C659.524 64.9596 659.395 64.6361 659.135 64.3945C658.875 64.1484 658.479 64.0254 657.945 64.0254C657.558 64.0254 657.175 64.0687 656.797 64.1553C656.423 64.2419 656.036 64.3649 655.635 64.5244V63.4512C655.785 63.3965 655.951 63.3441 656.134 63.2939C656.321 63.2393 656.517 63.1914 656.722 63.1504C656.927 63.1094 657.141 63.0775 657.364 63.0547C657.588 63.0273 657.813 63.0137 658.041 63.0137C658.456 63.0137 658.829 63.0592 659.162 63.1504C659.495 63.2415 659.775 63.3805 660.003 63.5674C660.235 63.7542 660.413 63.9889 660.536 64.2715C660.659 64.554 660.721 64.8867 660.721 65.2695V70H659.654ZM659.524 66.876H658.014C657.717 66.876 657.462 66.9056 657.248 66.9648C657.034 67.0241 656.858 67.1084 656.722 67.2178C656.585 67.3271 656.482 67.4593 656.414 67.6143C656.35 67.7646 656.318 67.9355 656.318 68.127C656.318 68.2591 656.339 68.3867 656.38 68.5098C656.421 68.6283 656.487 68.7354 656.578 68.8311C656.669 68.9222 656.788 68.9951 656.934 69.0498C657.079 69.1045 657.257 69.1318 657.467 69.1318C657.74 69.1318 658.052 69.0498 658.403 68.8857C658.759 68.7171 659.132 68.4528 659.524 68.0928V66.876ZM662.942 63.1367H664.002L664.05 64.2441C664.25 64.0072 664.444 63.8112 664.631 63.6562C664.818 63.4967 665 63.3691 665.178 63.2734C665.36 63.1777 665.545 63.1117 665.731 63.0752C665.918 63.0342 666.112 63.0137 666.312 63.0137C667.019 63.0137 667.552 63.2233 667.912 63.6426C668.277 64.0573 668.459 64.6839 668.459 65.5225V70H667.27V65.6182C667.27 65.0804 667.169 64.6839 666.969 64.4287C666.768 64.1689 666.47 64.0391 666.073 64.0391C665.927 64.0391 665.784 64.0618 665.643 64.1074C665.506 64.1484 665.362 64.2236 665.212 64.333C665.062 64.4378 664.897 64.5814 664.72 64.7637C664.547 64.946 664.351 65.1738 664.132 65.4473V70H662.942V63.1367ZM675.582 64.1074C675.71 64.2669 675.808 64.4538 675.876 64.668C675.949 64.8776 675.985 65.1055 675.985 65.3516C675.985 65.707 675.919 66.0329 675.787 66.3291C675.66 66.6208 675.477 66.8714 675.24 67.0811C675.003 67.2907 674.718 67.4548 674.386 67.5732C674.058 67.6872 673.695 67.7441 673.299 67.7441C673.012 67.7441 672.743 67.7145 672.492 67.6553C672.242 67.5915 672.043 67.514 671.897 67.4229C671.811 67.5505 671.738 67.6712 671.679 67.7852C671.619 67.8991 671.59 68.0267 671.59 68.168C671.59 68.3411 671.672 68.4847 671.836 68.5986C672.005 68.7126 672.226 68.7741 672.499 68.7832L674.304 68.8516C674.646 68.8607 674.96 68.904 675.247 68.9814C675.539 69.0589 675.787 69.1706 675.992 69.3164C676.202 69.4622 676.364 69.6423 676.478 69.8564C676.596 70.0706 676.655 70.319 676.655 70.6016C676.655 70.9069 676.589 71.1963 676.457 71.4697C676.325 71.7432 676.12 71.9824 675.842 72.1875C675.568 72.3971 675.22 72.5635 674.796 72.6865C674.372 72.8096 673.868 72.8711 673.285 72.8711C672.729 72.8711 672.255 72.8255 671.863 72.7344C671.476 72.6478 671.157 72.5247 670.906 72.3652C670.656 72.2103 670.473 72.0234 670.359 71.8047C670.245 71.5905 670.188 71.3535 670.188 71.0938C670.188 70.7611 670.266 70.4694 670.421 70.2188C670.576 69.9681 670.815 69.7266 671.139 69.4941C671.02 69.4395 670.918 69.3711 670.831 69.2891C670.744 69.207 670.674 69.1182 670.619 69.0225C670.564 68.9222 670.523 68.8174 670.496 68.708C670.469 68.5986 670.455 68.4915 670.455 68.3867C670.455 68.0905 670.523 67.8193 670.66 67.5732C670.801 67.3271 670.968 67.0947 671.159 66.876C671.073 66.7712 670.995 66.6686 670.927 66.5684C670.863 66.4681 670.806 66.361 670.756 66.2471C670.71 66.1286 670.674 66.0033 670.646 65.8711C670.624 65.7344 670.612 65.5794 670.612 65.4062C670.612 65.0508 670.676 64.7272 670.804 64.4355C670.936 64.1393 671.118 63.8864 671.351 63.6768C671.588 63.4671 671.87 63.3053 672.198 63.1914C672.531 63.0729 672.898 63.0137 673.299 63.0137C673.467 63.0137 673.629 63.0251 673.784 63.0479C673.939 63.0706 674.076 63.1003 674.194 63.1367H676.683V64.1074H675.582ZM671.453 70.9912C671.453 71.3148 671.622 71.5495 671.959 71.6953C672.296 71.8457 672.766 71.9209 673.367 71.9209C673.745 71.9209 674.062 71.8867 674.317 71.8184C674.577 71.75 674.785 71.6589 674.939 71.5449C675.099 71.4355 675.213 71.3079 675.281 71.1621C675.35 71.0208 675.384 70.875 675.384 70.7246C675.384 70.4466 675.27 70.2415 675.042 70.1094C674.814 69.9772 674.465 69.8997 673.996 69.877L672.205 69.8154C672.055 69.9157 671.929 70.0137 671.829 70.1094C671.733 70.2051 671.658 70.3008 671.604 70.3965C671.549 70.4967 671.51 70.5947 671.487 70.6904C671.465 70.7907 671.453 70.891 671.453 70.9912ZM671.815 65.3789C671.815 65.5977 671.852 65.7982 671.925 65.9805C671.998 66.1628 672.1 66.3177 672.232 66.4453C672.365 66.5729 672.52 66.6732 672.697 66.7461C672.88 66.8145 673.08 66.8486 673.299 66.8486C673.536 66.8486 673.745 66.8099 673.928 66.7324C674.115 66.6504 674.27 66.541 674.393 66.4043C674.52 66.2676 674.616 66.1104 674.68 65.9326C674.748 65.7549 674.782 65.5703 674.782 65.3789C674.782 65.1602 674.746 64.9596 674.673 64.7773C674.6 64.5951 674.497 64.4401 674.365 64.3125C674.233 64.1849 674.076 64.0869 673.894 64.0186C673.716 63.9456 673.518 63.9092 673.299 63.9092C673.062 63.9092 672.85 63.9502 672.663 64.0322C672.481 64.1143 672.326 64.2236 672.198 64.3604C672.075 64.4925 671.979 64.6475 671.911 64.8252C671.847 65.0029 671.815 65.1875 671.815 65.3789ZM684.134 66.2061C684.134 66.3747 684.132 66.516 684.127 66.6299C684.122 66.7438 684.116 66.8509 684.106 66.9512H679.287C679.287 67.653 679.483 68.193 679.875 68.5713C680.267 68.945 680.832 69.1318 681.57 69.1318C681.771 69.1318 681.971 69.125 682.172 69.1113C682.372 69.0931 682.566 69.0703 682.753 69.043C682.94 69.0156 683.118 68.986 683.286 68.9541C683.459 68.9176 683.619 68.8789 683.765 68.8379V69.8154C683.441 69.9066 683.074 69.9795 682.664 70.0342C682.258 70.0934 681.837 70.123 681.399 70.123C680.812 70.123 680.306 70.0433 679.882 69.8838C679.458 69.7243 679.109 69.4941 678.836 69.1934C678.567 68.888 678.367 68.5166 678.234 68.0791C678.107 67.637 678.043 67.138 678.043 66.582C678.043 66.099 678.111 65.6432 678.248 65.2148C678.389 64.7819 678.592 64.4036 678.856 64.0801C679.125 63.752 679.453 63.4922 679.841 63.3008C680.228 63.1094 680.668 63.0137 681.16 63.0137C681.639 63.0137 682.062 63.0889 682.432 63.2393C682.801 63.3896 683.111 63.6038 683.361 63.8818C683.617 64.1553 683.808 64.4902 683.936 64.8867C684.068 65.2786 684.134 65.7184 684.134 66.2061ZM682.896 66.0352C682.91 65.7298 682.881 65.4518 682.808 65.2012C682.735 64.946 682.621 64.7272 682.466 64.5449C682.315 64.3626 682.126 64.2214 681.898 64.1211C681.671 64.0163 681.406 63.9639 681.105 63.9639C680.846 63.9639 680.609 64.014 680.395 64.1143C680.18 64.2145 679.996 64.3558 679.841 64.5381C679.686 64.7204 679.561 64.9391 679.465 65.1943C679.369 65.4495 679.31 65.7298 679.287 66.0352H682.896ZM634.013 85.665C633.297 85.9613 632.548 86.1094 631.764 86.1094C630.501 86.1094 629.531 85.7334 628.852 84.9814C628.177 84.2249 627.84 83.1084 627.84 81.6318C627.84 80.9163 627.933 80.2692 628.12 79.6904C628.307 79.1117 628.574 78.6217 628.92 78.2207C629.266 77.8151 629.686 77.5029 630.178 77.2842C630.67 77.0654 631.221 76.9561 631.832 76.9561C632.247 76.9561 632.632 76.9925 632.987 77.0654C633.343 77.1338 633.685 77.2409 634.013 77.3867V78.583C633.689 78.4053 633.354 78.2708 633.008 78.1797C632.661 78.084 632.283 78.0361 631.873 78.0361C631.454 78.0361 631.073 78.1159 630.731 78.2754C630.394 78.4303 630.107 78.6582 629.87 78.959C629.633 79.2552 629.451 79.6198 629.323 80.0527C629.196 80.4811 629.132 80.971 629.132 81.5225C629.132 82.68 629.367 83.5527 629.836 84.1406C630.305 84.7285 630.993 85.0225 631.9 85.0225C632.283 85.0225 632.65 84.9792 633.001 84.8926C633.352 84.8014 633.689 84.6761 634.013 84.5166V85.665ZM641.977 82.5137C641.977 83.0469 641.901 83.5368 641.751 83.9834C641.601 84.4255 641.384 84.806 641.102 85.125C640.819 85.4395 640.475 85.6855 640.069 85.8633C639.664 86.0365 639.203 86.123 638.688 86.123C638.196 86.123 637.754 86.0479 637.362 85.8975C636.975 85.7425 636.645 85.5169 636.371 85.2207C636.102 84.9245 635.895 84.5576 635.749 84.1201C635.608 83.6826 635.537 83.179 635.537 82.6094C635.537 82.0762 635.612 81.5908 635.763 81.1533C635.913 80.7113 636.13 80.333 636.412 80.0186C636.695 79.6995 637.039 79.4535 637.444 79.2803C637.85 79.1025 638.31 79.0137 638.825 79.0137C639.317 79.0137 639.757 79.0911 640.145 79.2461C640.536 79.3965 640.867 79.6198 641.136 79.916C641.409 80.2077 641.617 80.5723 641.758 81.0098C641.904 81.4473 641.977 81.9486 641.977 82.5137ZM640.76 82.5684C640.76 82.1445 640.712 81.7754 640.616 81.4609C640.525 81.1419 640.393 80.8776 640.22 80.668C640.047 80.4538 639.835 80.2943 639.584 80.1895C639.338 80.0801 639.062 80.0254 638.757 80.0254C638.401 80.0254 638.096 80.096 637.841 80.2373C637.59 80.374 637.383 80.5586 637.219 80.791C637.059 81.0234 636.941 81.2946 636.863 81.6045C636.79 81.9098 636.754 82.2311 636.754 82.5684C636.754 82.9922 636.799 83.3636 636.891 83.6826C636.986 84.0016 637.121 84.2682 637.294 84.4824C637.467 84.6921 637.677 84.8516 637.923 84.9609C638.169 85.0658 638.447 85.1182 638.757 85.1182C639.112 85.1182 639.415 85.0498 639.666 84.9131C639.921 84.7718 640.129 84.585 640.288 84.3525C640.452 84.1201 640.571 83.8512 640.644 83.5459C640.721 83.236 640.76 82.9102 640.76 82.5684ZM643.699 79.1367H644.759L644.807 80.2441C645.007 80.0072 645.201 79.8112 645.388 79.6562C645.575 79.4967 645.757 79.3691 645.935 79.2734C646.117 79.1777 646.301 79.1117 646.488 79.0752C646.675 79.0342 646.869 79.0137 647.069 79.0137C647.776 79.0137 648.309 79.2233 648.669 79.6426C649.034 80.0573 649.216 80.6839 649.216 81.5225V86H648.026V81.6182C648.026 81.0804 647.926 80.6839 647.726 80.4287C647.525 80.1689 647.227 80.0391 646.83 80.0391C646.684 80.0391 646.541 80.0618 646.399 80.1074C646.263 80.1484 646.119 80.2236 645.969 80.333C645.818 80.4378 645.654 80.5814 645.477 80.7637C645.303 80.946 645.107 81.1738 644.889 81.4473V86H643.699V79.1367ZM656.927 85.9043C656.658 85.9727 656.38 86.0205 656.093 86.0479C655.806 86.0798 655.514 86.0957 655.218 86.0957C654.356 86.0957 653.714 85.902 653.29 85.5146C652.866 85.1227 652.654 84.5234 652.654 83.7168V80.1348H650.733V79.1367H652.654V77.25L653.844 76.9424V79.1367H656.927V80.1348H653.844V83.6211C653.844 84.1133 653.974 84.4824 654.233 84.7285C654.498 84.9701 654.885 85.0908 655.396 85.0908C655.614 85.0908 655.854 85.0749 656.113 85.043C656.373 85.0065 656.644 84.9518 656.927 84.8789V85.9043ZM659.374 79.1367H660.461L660.495 80.4014C660.901 79.9137 661.299 79.5605 661.691 79.3418C662.088 79.123 662.487 79.0137 662.888 79.0137C663.599 79.0137 664.136 79.2438 664.501 79.7041C664.87 80.1644 665.041 80.848 665.014 81.7549H663.811C663.824 81.1533 663.735 80.7181 663.544 80.4492C663.357 80.1758 663.081 80.0391 662.717 80.0391C662.557 80.0391 662.396 80.0687 662.231 80.1279C662.072 80.1826 661.906 80.2738 661.732 80.4014C661.564 80.5244 661.384 80.6839 661.192 80.8799C661.001 81.0758 660.796 81.3128 660.577 81.5908V86H659.374V79.1367ZM671.2 86L671.173 85.0771C670.799 85.4463 670.419 85.7129 670.031 85.877C669.648 86.041 669.245 86.123 668.821 86.123C668.429 86.123 668.094 86.0729 667.816 85.9727C667.538 85.8724 667.308 85.7357 667.126 85.5625C666.948 85.3848 666.816 85.1774 666.729 84.9404C666.647 84.7035 666.606 84.446 666.606 84.168C666.606 83.4798 666.862 82.9421 667.372 82.5547C667.887 82.1628 668.646 81.9668 669.648 81.9668H671.07V81.3652C671.07 80.9596 670.94 80.6361 670.681 80.3945C670.421 80.1484 670.024 80.0254 669.491 80.0254C669.104 80.0254 668.721 80.0687 668.343 80.1553C667.969 80.2419 667.582 80.3649 667.181 80.5244V79.4512C667.331 79.3965 667.497 79.3441 667.68 79.2939C667.867 79.2393 668.062 79.1914 668.268 79.1504C668.473 79.1094 668.687 79.0775 668.91 79.0547C669.133 79.0273 669.359 79.0137 669.587 79.0137C670.002 79.0137 670.375 79.0592 670.708 79.1504C671.041 79.2415 671.321 79.3805 671.549 79.5674C671.781 79.7542 671.959 79.9889 672.082 80.2715C672.205 80.554 672.267 80.8867 672.267 81.2695V86H671.2ZM671.07 82.876H669.56C669.263 82.876 669.008 82.9056 668.794 82.9648C668.58 83.0241 668.404 83.1084 668.268 83.2178C668.131 83.3271 668.028 83.4593 667.96 83.6143C667.896 83.7646 667.864 83.9355 667.864 84.127C667.864 84.2591 667.885 84.3867 667.926 84.5098C667.967 84.6283 668.033 84.7354 668.124 84.8311C668.215 84.9222 668.334 84.9951 668.479 85.0498C668.625 85.1045 668.803 85.1318 669.013 85.1318C669.286 85.1318 669.598 85.0498 669.949 84.8857C670.305 84.7171 670.678 84.4528 671.07 84.0928V82.876ZM679.82 85.7471C679.51 85.8656 679.191 85.9521 678.863 86.0068C678.54 86.0661 678.205 86.0957 677.858 86.0957C676.774 86.0957 675.938 85.8018 675.35 85.2139C674.766 84.626 674.475 83.7669 674.475 82.6367C674.475 82.0944 674.559 81.6022 674.728 81.1602C674.896 80.7181 675.133 80.3398 675.438 80.0254C675.744 79.7109 676.108 79.4694 676.532 79.3008C676.956 79.1276 677.423 79.041 677.934 79.041C678.289 79.041 678.622 79.0661 678.932 79.1162C679.242 79.1663 679.538 79.2484 679.82 79.3623V80.4971C679.524 80.3421 679.221 80.2305 678.911 80.1621C678.606 80.0892 678.289 80.0527 677.961 80.0527C677.656 80.0527 677.366 80.112 677.093 80.2305C676.824 80.3444 676.587 80.5107 676.382 80.7295C676.177 80.9482 676.015 81.2148 675.896 81.5293C675.778 81.8438 675.719 82.1992 675.719 82.5957C675.719 83.4251 675.919 84.0472 676.32 84.4619C676.726 84.8721 677.286 85.0771 678.002 85.0771C678.326 85.0771 678.638 85.0407 678.938 84.9678C679.244 84.8949 679.538 84.7855 679.82 84.6396V85.7471ZM687.716 85.9043C687.447 85.9727 687.169 86.0205 686.882 86.0479C686.595 86.0798 686.303 86.0957 686.007 86.0957C685.146 86.0957 684.503 85.902 684.079 85.5146C683.655 85.1227 683.443 84.5234 683.443 83.7168V80.1348H681.522V79.1367H683.443V77.25L684.633 76.9424V79.1367H687.716V80.1348H684.633V83.6211C684.633 84.1133 684.763 84.4824 685.022 84.7285C685.287 84.9701 685.674 85.0908 686.185 85.0908C686.403 85.0908 686.643 85.0749 686.902 85.043C687.162 85.0065 687.433 84.9518 687.716 84.8789V85.9043Z" fill="black"/>
</g>
<mask id="mask3" mask-type="alpha" maskUnits="userSpaceOnUse" x="402" y="36" width="146" height="79">
<rect x="402" y="36" width="146" height="79" rx="2" fill="white"/>
</mask>
<g mask="url(#mask3)">
<g filter="url(#filter3_d)">
<rect x="402" y="36" width="146" height="79" rx="2" fill="#FFF9D7"/>
<rect x="403" y="37" width="144" height="77" rx="1" stroke="black" stroke-width="2"/>
</g>
<path d="M443.329 76.5801C443.329 77.0039 443.243 77.3753 443.069 77.6943C442.896 78.0133 442.655 78.2799 442.345 78.4941C442.035 78.7038 441.661 78.861 441.224 78.9658C440.791 79.0706 440.312 79.123 439.788 79.123C439.551 79.123 439.314 79.1139 439.077 79.0957C438.845 79.0775 438.619 79.0547 438.4 79.0273C438.186 79 437.983 78.9681 437.792 78.9316C437.601 78.8952 437.427 78.8564 437.272 78.8154V77.6396C437.614 77.7673 437.997 77.8675 438.421 77.9404C438.849 78.0133 439.335 78.0498 439.877 78.0498C440.269 78.0498 440.602 78.0202 440.875 77.9609C441.153 77.8971 441.379 77.806 441.552 77.6875C441.729 77.5645 441.857 77.4163 441.935 77.2432C442.017 77.07 442.058 76.8717 442.058 76.6484C442.058 76.4069 441.989 76.2018 441.853 76.0332C441.72 75.86 441.545 75.7074 441.326 75.5752C441.107 75.4385 440.857 75.3154 440.574 75.2061C440.296 75.0921 440.011 74.9759 439.72 74.8574C439.428 74.7389 439.141 74.6113 438.858 74.4746C438.58 74.3333 438.332 74.1693 438.113 73.9824C437.895 73.791 437.717 73.5677 437.58 73.3125C437.448 73.0573 437.382 72.7542 437.382 72.4033C437.382 72.098 437.446 71.7972 437.573 71.501C437.701 71.2048 437.899 70.9427 438.168 70.7148C438.437 70.4824 438.781 70.2956 439.2 70.1543C439.624 70.013 440.128 69.9424 440.711 69.9424C440.861 69.9424 441.023 69.9492 441.196 69.9629C441.374 69.9766 441.552 69.9971 441.729 70.0244C441.912 70.0472 442.09 70.0745 442.263 70.1064C442.44 70.1383 442.604 70.1725 442.755 70.209V71.3027C442.404 71.2025 442.053 71.1273 441.702 71.0771C441.351 71.0225 441.012 70.9951 440.684 70.9951C439.986 70.9951 439.474 71.1113 439.146 71.3438C438.817 71.5762 438.653 71.8883 438.653 72.2803C438.653 72.5218 438.719 72.7292 438.852 72.9023C438.988 73.0755 439.166 73.2305 439.385 73.3672C439.604 73.5039 439.852 73.6292 440.13 73.7432C440.412 73.8525 440.7 73.9665 440.991 74.085C441.283 74.2035 441.568 74.3333 441.846 74.4746C442.128 74.6159 442.379 74.7845 442.598 74.9805C442.816 75.1719 442.992 75.3975 443.124 75.6572C443.261 75.917 443.329 76.2246 443.329 76.5801ZM449.714 79L449.687 78.0771C449.313 78.4463 448.932 78.7129 448.545 78.877C448.162 79.041 447.759 79.123 447.335 79.123C446.943 79.123 446.608 79.0729 446.33 78.9727C446.052 78.8724 445.822 78.7357 445.64 78.5625C445.462 78.3848 445.33 78.1774 445.243 77.9404C445.161 77.7035 445.12 77.446 445.12 77.168C445.12 76.4798 445.375 75.9421 445.886 75.5547C446.401 75.1628 447.16 74.9668 448.162 74.9668H449.584V74.3652C449.584 73.9596 449.454 73.6361 449.194 73.3945C448.935 73.1484 448.538 73.0254 448.005 73.0254C447.618 73.0254 447.235 73.0687 446.856 73.1553C446.483 73.2419 446.095 73.3649 445.694 73.5244V72.4512C445.845 72.3965 446.011 72.3441 446.193 72.2939C446.38 72.2393 446.576 72.1914 446.781 72.1504C446.986 72.1094 447.201 72.0775 447.424 72.0547C447.647 72.0273 447.873 72.0137 448.101 72.0137C448.515 72.0137 448.889 72.0592 449.222 72.1504C449.554 72.2415 449.835 72.3805 450.062 72.5674C450.295 72.7542 450.473 72.9889 450.596 73.2715C450.719 73.554 450.78 73.8867 450.78 74.2695V79H449.714ZM449.584 75.876H448.073C447.777 75.876 447.522 75.9056 447.308 75.9648C447.093 76.0241 446.918 76.1084 446.781 76.2178C446.645 76.3271 446.542 76.4593 446.474 76.6143C446.41 76.7646 446.378 76.9355 446.378 77.127C446.378 77.2591 446.398 77.3867 446.439 77.5098C446.48 77.6283 446.547 77.7354 446.638 77.8311C446.729 77.9222 446.847 77.9951 446.993 78.0498C447.139 78.1045 447.317 78.1318 447.526 78.1318C447.8 78.1318 448.112 78.0498 448.463 77.8857C448.818 77.7171 449.192 77.4528 449.584 77.0928V75.876ZM455.34 70.3184H453.31V69.3408H456.543V78.0088H458.587V79H453.084V78.0088H455.34V70.3184ZM466.496 75.2061C466.496 75.3747 466.494 75.516 466.489 75.6299C466.485 75.7438 466.478 75.8509 466.469 75.9512H461.649C461.649 76.653 461.845 77.193 462.237 77.5713C462.629 77.945 463.194 78.1318 463.933 78.1318C464.133 78.1318 464.334 78.125 464.534 78.1113C464.735 78.0931 464.928 78.0703 465.115 78.043C465.302 78.0156 465.48 77.986 465.648 77.9541C465.822 77.9176 465.981 77.8789 466.127 77.8379V78.8154C465.803 78.9066 465.437 78.9795 465.026 79.0342C464.621 79.0934 464.199 79.123 463.762 79.123C463.174 79.123 462.668 79.0433 462.244 78.8838C461.82 78.7243 461.472 78.4941 461.198 78.1934C460.929 77.888 460.729 77.5166 460.597 77.0791C460.469 76.637 460.405 76.138 460.405 75.582C460.405 75.099 460.474 74.6432 460.61 74.2148C460.752 73.7819 460.954 73.4036 461.219 73.0801C461.488 72.752 461.816 72.4922 462.203 72.3008C462.59 72.1094 463.03 72.0137 463.522 72.0137C464.001 72.0137 464.425 72.0889 464.794 72.2393C465.163 72.3896 465.473 72.6038 465.724 72.8818C465.979 73.1553 466.17 73.4902 466.298 73.8867C466.43 74.2786 466.496 74.7184 466.496 75.2061ZM465.259 75.0352C465.272 74.7298 465.243 74.4518 465.17 74.2012C465.097 73.946 464.983 73.7272 464.828 73.5449C464.678 73.3626 464.489 73.2214 464.261 73.1211C464.033 73.0163 463.769 72.9639 463.468 72.9639C463.208 72.9639 462.971 73.014 462.757 73.1143C462.543 73.2145 462.358 73.3558 462.203 73.5381C462.048 73.7204 461.923 73.9391 461.827 74.1943C461.731 74.4495 461.672 74.7298 461.649 75.0352H465.259ZM473.831 77.127C473.831 77.3685 473.79 77.585 473.708 77.7764C473.626 77.9678 473.514 78.1387 473.373 78.2891C473.232 78.4349 473.068 78.5602 472.881 78.665C472.694 78.7699 472.493 78.8564 472.279 78.9248C472.07 78.9932 471.853 79.0433 471.63 79.0752C471.407 79.1071 471.188 79.123 470.974 79.123C470.509 79.123 470.08 79.1025 469.688 79.0615C469.301 79.0205 468.921 78.9544 468.547 78.8633V77.7695C468.948 77.8835 469.347 77.9701 469.743 78.0293C470.14 78.0885 470.534 78.1182 470.926 78.1182C471.495 78.1182 471.917 78.0407 472.19 77.8857C472.464 77.7308 472.601 77.5098 472.601 77.2227C472.601 77.0996 472.578 76.9902 472.532 76.8945C472.491 76.7943 472.414 76.7008 472.3 76.6143C472.186 76.5231 472.008 76.4297 471.767 76.334C471.53 76.2383 471.204 76.1289 470.789 76.0059C470.479 75.9147 470.192 75.8122 469.928 75.6982C469.668 75.5798 469.442 75.4408 469.251 75.2812C469.06 75.1217 468.909 74.9349 468.8 74.7207C468.69 74.5065 468.636 74.2536 468.636 73.9619C468.636 73.7705 468.679 73.5609 468.766 73.333C468.857 73.1051 469.009 72.8932 469.224 72.6973C469.438 72.5013 469.727 72.3395 470.092 72.2119C470.456 72.0798 470.912 72.0137 471.459 72.0137C471.728 72.0137 472.026 72.0296 472.354 72.0615C472.683 72.0889 473.024 72.139 473.38 72.2119V73.2715C473.006 73.1803 472.651 73.1143 472.313 73.0732C471.981 73.0277 471.691 73.0049 471.445 73.0049C471.149 73.0049 470.898 73.0277 470.693 73.0732C470.493 73.1188 470.329 73.1826 470.201 73.2646C470.078 73.3421 469.989 73.4355 469.935 73.5449C469.88 73.6497 469.853 73.7637 469.853 73.8867C469.853 74.0098 469.875 74.1214 469.921 74.2217C469.971 74.3219 470.06 74.4199 470.188 74.5156C470.32 74.6068 470.502 74.7002 470.734 74.7959C470.967 74.887 471.27 74.9873 471.644 75.0967C472.049 75.2152 472.391 75.3405 472.669 75.4727C472.947 75.6003 473.173 75.7438 473.346 75.9033C473.519 76.0628 473.642 76.2428 473.715 76.4434C473.792 76.6439 473.831 76.8717 473.831 77.127ZM489.499 78.665C488.784 78.9613 488.034 79.1094 487.25 79.1094C485.988 79.1094 485.017 78.7334 484.338 77.9814C483.663 77.2249 483.326 76.1084 483.326 74.6318C483.326 73.9163 483.42 73.2692 483.606 72.6904C483.793 72.1117 484.06 71.6217 484.406 71.2207C484.753 70.8151 485.172 70.5029 485.664 70.2842C486.156 70.0654 486.708 69.9561 487.318 69.9561C487.733 69.9561 488.118 69.9925 488.474 70.0654C488.829 70.1338 489.171 70.2409 489.499 70.3867V71.583C489.175 71.4053 488.84 71.2708 488.494 71.1797C488.148 71.084 487.77 71.0361 487.359 71.0361C486.94 71.0361 486.56 71.1159 486.218 71.2754C485.881 71.4303 485.593 71.6582 485.356 71.959C485.119 72.2552 484.937 72.6198 484.81 73.0527C484.682 73.4811 484.618 73.971 484.618 74.5225C484.618 75.68 484.853 76.5527 485.322 77.1406C485.792 77.7285 486.48 78.0225 487.387 78.0225C487.77 78.0225 488.136 77.9792 488.487 77.8926C488.838 77.8014 489.175 77.6761 489.499 77.5166V78.665ZM495.897 79L495.87 78.0771C495.496 78.4463 495.116 78.7129 494.729 78.877C494.346 79.041 493.942 79.123 493.519 79.123C493.127 79.123 492.792 79.0729 492.514 78.9727C492.236 78.8724 492.006 78.7357 491.823 78.5625C491.646 78.3848 491.513 78.1774 491.427 77.9404C491.345 77.7035 491.304 77.446 491.304 77.168C491.304 76.4798 491.559 75.9421 492.069 75.5547C492.584 75.1628 493.343 74.9668 494.346 74.9668H495.768V74.3652C495.768 73.9596 495.638 73.6361 495.378 73.3945C495.118 73.1484 494.722 73.0254 494.188 73.0254C493.801 73.0254 493.418 73.0687 493.04 73.1553C492.666 73.2419 492.279 73.3649 491.878 73.5244V72.4512C492.028 72.3965 492.195 72.3441 492.377 72.2939C492.564 72.2393 492.76 72.1914 492.965 72.1504C493.17 72.1094 493.384 72.0775 493.607 72.0547C493.831 72.0273 494.056 72.0137 494.284 72.0137C494.699 72.0137 495.073 72.0592 495.405 72.1504C495.738 72.2415 496.018 72.3805 496.246 72.5674C496.479 72.7542 496.656 72.9889 496.779 73.2715C496.902 73.554 496.964 73.8867 496.964 74.2695V79H495.897ZM495.768 75.876H494.257C493.961 75.876 493.705 75.9056 493.491 75.9648C493.277 76.0241 493.102 76.1084 492.965 76.2178C492.828 76.3271 492.726 76.4593 492.657 76.6143C492.593 76.7646 492.562 76.9355 492.562 77.127C492.562 77.2591 492.582 77.3867 492.623 77.5098C492.664 77.6283 492.73 77.7354 492.821 77.8311C492.912 77.9222 493.031 77.9951 493.177 78.0498C493.323 78.1045 493.5 78.1318 493.71 78.1318C493.983 78.1318 494.296 78.0498 494.646 77.8857C495.002 77.7171 495.376 77.4528 495.768 77.0928V75.876ZM501.523 70.3184H499.493V69.3408H502.727V78.0088H504.771V79H499.268V78.0088H501.523V70.3184ZM509.221 70.3184H507.19V69.3408H510.424V78.0088H512.468V79H506.965V78.0088H509.221V70.3184Z" fill="black"/>
</g>
<path d="M401.707 75.7071C402.098 75.3166 402.098 74.6834 401.707 74.2929L395.343 67.9289C394.953 67.5384 394.319 67.5384 393.929 67.9289C393.538 68.3195 393.538 68.9526 393.929 69.3431L399.586 75L393.929 80.6569C393.538 81.0474 393.538 81.6805 393.929 82.0711C394.319 82.4616 394.953 82.4616 395.343 82.0711L401.707 75.7071ZM365 76H401V74H365V76Z" fill="black"/>
<path d="M584.707 75.7071C585.098 75.3166 585.098 74.6834 584.707 74.2929L578.343 67.9289C577.953 67.5384 577.319 67.5384 576.929 67.9289C576.538 68.3195 576.538 68.9526 576.929 69.3431L582.586 75L576.929 80.6569C576.538 81.0474 576.538 81.6805 576.929 82.0711C577.319 82.4616 577.953 82.4616 578.343 82.0711L584.707 75.7071ZM548 76H584V74H548V76Z" fill="black"/>
<defs>
<filter id="filter0_d" x="28" y="33" width="162" height="95" filterUnits="userSpaceOnUse" color-interpolation-filters="sRGB">
<feFlood flood-opacity="0" result="BackgroundImageFix"/>
<feColorMatrix in="SourceAlpha" type="matrix" values="0 0 0 0 0 0 0 0 0 0 0 0 0 0 0 0 0 0 127 0"/>
<feOffset dy="5"/>
<feGaussianBlur stdDeviation="4"/>
<feColorMatrix type="matrix" values="0 0 0 0 0 0 0 0 0 0 0 0 0 0 0 0 0 0 0.12 0"/>
<feBlend mode="normal" in2="BackgroundImageFix" result="effect1_dropShadow"/>
<feBlend mode="normal" in="SourceGraphic" in2="effect1_dropShadow" result="shape"/>
</filter>
<filter id="filter1_d" x="211" y="33" width="162" height="95" filterUnits="userSpaceOnUse" color-interpolation-filters="sRGB">
<feFlood flood-opacity="0" result="BackgroundImageFix"/>
<feColorMatrix in="SourceAlpha" type="matrix" values="0 0 0 0 0 0 0 0 0 0 0 0 0 0 0 0 0 0 127 0"/>
<feOffset dy="5"/>
<feGaussianBlur stdDeviation="4"/>
<feColorMatrix type="matrix" values="0 0 0 0 0 0 0 0 0 0 0 0 0 0 0 0 0 0 0.12 0"/>
<feBlend mode="normal" in2="BackgroundImageFix" result="effect1_dropShadow"/>
<feBlend mode="normal" in="SourceGraphic" in2="effect1_dropShadow" result="shape"/>
</filter>
<filter id="filter2_d" x="577" y="33" width="162" height="95" filterUnits="userSpaceOnUse" color-interpolation-filters="sRGB">
<feFlood flood-opacity="0" result="BackgroundImageFix"/>
<feColorMatrix in="SourceAlpha" type="matrix" values="0 0 0 0 0 0 0 0 0 0 0 0 0 0 0 0 0 0 127 0"/>
<feOffset dy="5"/>
<feGaussianBlur stdDeviation="4"/>
<feColorMatrix type="matrix" values="0 0 0 0 0 0 0 0 0 0 0 0 0 0 0 0 0 0 0.12 0"/>
<feBlend mode="normal" in2="BackgroundImageFix" result="effect1_dropShadow"/>
<feBlend mode="normal" in="SourceGraphic" in2="effect1_dropShadow" result="shape"/>
</filter>
<filter id="filter3_d" x="394" y="33" width="162" height="95" filterUnits="userSpaceOnUse" color-interpolation-filters="sRGB">
<feFlood flood-opacity="0" result="BackgroundImageFix"/>
<feColorMatrix in="SourceAlpha" type="matrix" values="0 0 0 0 0 0 0 0 0 0 0 0 0 0 0 0 0 0 127 0"/>
<feOffset dy="5"/>
<feGaussianBlur stdDeviation="4"/>
<feColorMatrix type="matrix" values="0 0 0 0 0 0 0 0 0 0 0 0 0 0 0 0 0 0 0.12 0"/>
<feBlend mode="normal" in2="BackgroundImageFix" result="effect1_dropShadow"/>
<feBlend mode="normal" in="SourceGraphic" in2="effect1_dropShadow" result="shape"/>
</filter>
</defs>
</svg>
