<svg width="768" height="191" viewBox="0 0 768 191" fill="none" xmlns="http://www.w3.org/2000/svg">
<rect width="768" height="191" fill="#FAFAFA"/>
<path d="M95.4404 153.3C95.4404 153.787 95.3493 154.211 95.167 154.571C94.9893 154.931 94.7386 155.23 94.415 155.467C94.0915 155.699 93.7064 155.872 93.2598 155.986C92.8132 156.1 92.3255 156.157 91.7969 156.157C91.3275 156.157 90.874 156.13 90.4365 156.075C89.999 156.021 89.5661 155.929 89.1377 155.802V154.141C89.3473 154.214 89.5661 154.282 89.7939 154.346C90.0218 154.41 90.2497 154.466 90.4775 154.517C90.71 154.562 90.9401 154.599 91.168 154.626C91.3958 154.653 91.6169 154.667 91.8311 154.667C92.1501 154.667 92.4212 154.64 92.6445 154.585C92.8678 154.53 93.0501 154.455 93.1914 154.359C93.3327 154.264 93.4352 154.15 93.499 154.018C93.5628 153.885 93.5947 153.74 93.5947 153.58C93.5947 153.361 93.5309 153.179 93.4033 153.033C93.2803 152.883 93.1162 152.751 92.9111 152.637C92.7061 152.523 92.4714 152.42 92.207 152.329C91.9473 152.238 91.6807 152.14 91.4072 152.035C91.1383 151.93 90.8717 151.812 90.6074 151.68C90.3477 151.548 90.1152 151.383 89.9102 151.188C89.7051 150.992 89.5387 150.759 89.4111 150.49C89.2881 150.217 89.2266 149.889 89.2266 149.506C89.2266 149.155 89.2904 148.822 89.418 148.508C89.5456 148.193 89.7461 147.92 90.0195 147.688C90.293 147.451 90.6439 147.264 91.0723 147.127C91.5007 146.986 92.0179 146.915 92.624 146.915C92.8018 146.915 92.9863 146.924 93.1777 146.942C93.3737 146.956 93.5651 146.977 93.752 147.004C93.9434 147.027 94.1257 147.056 94.2988 147.093C94.4766 147.125 94.6383 147.159 94.7842 147.195V148.733C94.6383 148.679 94.4788 148.629 94.3057 148.583C94.1325 148.537 93.9525 148.499 93.7656 148.467C93.5833 148.43 93.3988 148.403 93.2119 148.385C93.0251 148.367 92.8473 148.357 92.6787 148.357C92.3825 148.357 92.1318 148.382 91.9268 148.433C91.7217 148.478 91.5531 148.544 91.4209 148.631C91.2887 148.713 91.193 148.815 91.1338 148.938C91.0745 149.062 91.0449 149.198 91.0449 149.349C91.0449 149.535 91.1064 149.697 91.2295 149.834C91.3571 149.966 91.5234 150.087 91.7285 150.196C91.9382 150.301 92.1729 150.401 92.4326 150.497C92.6969 150.588 92.9658 150.688 93.2393 150.798C93.5173 150.903 93.7861 151.023 94.0459 151.16C94.3102 151.297 94.5449 151.463 94.75 151.659C94.9596 151.855 95.126 152.088 95.249 152.356C95.3766 152.621 95.4404 152.935 95.4404 153.3ZM101.203 147.154C101.203 147.305 101.176 147.446 101.121 147.578C101.066 147.71 100.989 147.826 100.889 147.927C100.793 148.022 100.679 148.1 100.547 148.159C100.415 148.214 100.271 148.241 100.116 148.241C99.9613 148.241 99.8154 148.214 99.6787 148.159C99.5465 148.1 99.4303 148.022 99.3301 147.927C99.2344 147.826 99.1592 147.71 99.1045 147.578C99.0498 147.446 99.0225 147.305 99.0225 147.154C99.0225 147.004 99.0498 146.863 99.1045 146.73C99.1592 146.598 99.2344 146.482 99.3301 146.382C99.4303 146.282 99.5465 146.204 99.6787 146.149C99.8154 146.09 99.9613 146.061 100.116 146.061C100.271 146.061 100.415 146.09 100.547 146.149C100.679 146.204 100.793 146.282 100.889 146.382C100.989 146.482 101.066 146.598 101.121 146.73C101.176 146.863 101.203 147.004 101.203 147.154ZM99.3574 150.354H97.3955V149.055H101.066V154.701H103.069V156H97.1562V154.701H99.3574V150.354ZM108.955 156V151.475C108.955 150.714 108.673 150.333 108.107 150.333C107.825 150.333 107.554 150.447 107.294 150.675C107.039 150.903 106.768 151.213 106.48 151.604V156H104.812V149.055H106.255L106.296 150.08C106.437 149.902 106.583 149.741 106.733 149.595C106.888 149.449 107.055 149.326 107.232 149.226C107.41 149.121 107.602 149.041 107.807 148.986C108.012 148.932 108.242 148.904 108.497 148.904C108.853 148.904 109.162 148.964 109.427 149.082C109.691 149.196 109.912 149.36 110.09 149.574C110.268 149.784 110.4 150.039 110.486 150.34C110.577 150.636 110.623 150.969 110.623 151.338V156H108.955ZM117.719 150.271C117.846 150.431 117.935 150.6 117.985 150.777C118.04 150.951 118.067 151.128 118.067 151.311C118.067 151.698 117.999 152.04 117.862 152.336C117.73 152.632 117.541 152.881 117.295 153.081C117.053 153.282 116.762 153.434 116.42 153.539C116.083 153.639 115.709 153.689 115.299 153.689C115.057 153.689 114.834 153.667 114.629 153.621C114.424 153.571 114.269 153.514 114.164 153.45C114.087 153.528 114.021 153.614 113.966 153.71C113.911 153.801 113.884 153.906 113.884 154.024C113.884 154.097 113.902 154.17 113.938 154.243C113.975 154.316 114.027 154.382 114.096 154.441C114.169 154.496 114.253 154.542 114.349 154.578C114.449 154.615 114.561 154.635 114.684 154.64L116.331 154.701C116.7 154.71 117.033 154.758 117.329 154.845C117.63 154.927 117.887 155.045 118.102 155.2C118.316 155.355 118.48 155.544 118.594 155.768C118.712 155.986 118.771 156.237 118.771 156.52C118.771 156.843 118.699 157.148 118.553 157.436C118.407 157.723 118.186 157.971 117.89 158.181C117.598 158.395 117.233 158.563 116.796 158.687C116.358 158.81 115.85 158.871 115.271 158.871C114.711 158.871 114.228 158.826 113.822 158.734C113.421 158.648 113.091 158.525 112.831 158.365C112.576 158.206 112.387 158.014 112.264 157.791C112.141 157.572 112.079 157.331 112.079 157.066C112.079 156.907 112.1 156.759 112.141 156.622C112.182 156.485 112.243 156.353 112.325 156.226C112.407 156.103 112.51 155.982 112.633 155.863C112.756 155.745 112.902 155.626 113.07 155.508C112.847 155.38 112.676 155.216 112.558 155.016C112.444 154.815 112.387 154.601 112.387 154.373C112.387 154.218 112.407 154.075 112.448 153.942C112.489 153.806 112.542 153.676 112.605 153.553C112.674 153.43 112.751 153.311 112.838 153.197C112.924 153.083 113.016 152.972 113.111 152.862C112.943 152.694 112.801 152.491 112.688 152.254C112.578 152.012 112.523 151.712 112.523 151.352C112.523 150.964 112.592 150.62 112.729 150.319C112.87 150.014 113.063 149.759 113.31 149.554C113.556 149.344 113.847 149.187 114.185 149.082C114.526 148.973 114.898 148.918 115.299 148.918C115.504 148.918 115.7 148.929 115.887 148.952C116.078 148.97 116.251 149.005 116.406 149.055H118.812V150.271H117.719ZM113.788 156.923C113.788 157.192 113.923 157.39 114.191 157.518C114.465 157.645 114.848 157.709 115.34 157.709C115.654 157.709 115.919 157.679 116.133 157.62C116.352 157.561 116.529 157.483 116.666 157.388C116.803 157.292 116.901 157.18 116.96 157.053C117.019 156.925 117.049 156.793 117.049 156.656C117.049 156.533 117.019 156.428 116.96 156.342C116.905 156.26 116.826 156.189 116.721 156.13C116.62 156.075 116.5 156.032 116.358 156C116.222 155.973 116.069 155.954 115.9 155.945L114.431 155.918C114.299 156.009 114.189 156.096 114.103 156.178C114.021 156.26 113.954 156.34 113.904 156.417C113.859 156.499 113.827 156.581 113.809 156.663C113.795 156.745 113.788 156.832 113.788 156.923ZM114.068 151.352C114.068 151.721 114.175 152.015 114.39 152.233C114.608 152.448 114.911 152.555 115.299 152.555C115.504 152.555 115.682 152.521 115.832 152.452C115.987 152.384 116.115 152.293 116.215 152.179C116.315 152.065 116.39 151.933 116.44 151.782C116.491 151.632 116.516 151.475 116.516 151.311C116.516 150.923 116.406 150.622 116.188 150.408C115.973 150.189 115.673 150.08 115.285 150.08C115.08 150.08 114.9 150.114 114.745 150.183C114.595 150.251 114.469 150.344 114.369 150.463C114.269 150.577 114.194 150.711 114.144 150.866C114.093 151.021 114.068 151.183 114.068 151.352ZM122.449 147.64H120.487V146.341H124.158V154.701H126.161V156H120.248V154.701H122.449V147.64ZM133.954 151.994C133.954 152.108 133.95 152.256 133.94 152.438C133.936 152.621 133.927 152.792 133.913 152.951H129.347C129.347 153.257 129.392 153.525 129.483 153.758C129.579 153.99 129.711 154.186 129.88 154.346C130.053 154.501 130.258 154.619 130.495 154.701C130.737 154.783 131.003 154.824 131.295 154.824C131.632 154.824 131.992 154.799 132.375 154.749C132.762 154.694 133.163 154.608 133.578 154.489V155.815C133.4 155.866 133.207 155.911 132.997 155.952C132.787 155.993 132.573 156.03 132.354 156.062C132.136 156.093 131.915 156.116 131.691 156.13C131.468 156.148 131.252 156.157 131.042 156.157C130.513 156.157 130.039 156.082 129.62 155.932C129.201 155.781 128.845 155.56 128.554 155.269C128.262 154.972 128.039 154.608 127.884 154.175C127.729 153.742 127.651 153.241 127.651 152.671C127.651 152.106 127.729 151.593 127.884 151.133C128.039 150.668 128.257 150.271 128.54 149.943C128.823 149.611 129.164 149.355 129.565 149.178C129.971 148.995 130.422 148.904 130.919 148.904C131.411 148.904 131.846 148.982 132.225 149.137C132.603 149.287 132.92 149.499 133.175 149.772C133.43 150.046 133.624 150.372 133.756 150.75C133.888 151.128 133.954 151.543 133.954 151.994ZM132.259 151.755C132.263 151.481 132.229 151.244 132.156 151.044C132.083 150.839 131.983 150.67 131.855 150.538C131.732 150.406 131.587 150.308 131.418 150.244C131.254 150.18 131.076 150.148 130.885 150.148C130.465 150.148 130.121 150.29 129.853 150.572C129.584 150.85 129.424 151.244 129.374 151.755H132.259ZM149.472 149.909C149.472 150.374 149.394 150.805 149.239 151.201C149.084 151.593 148.854 151.933 148.549 152.22C148.243 152.507 147.863 152.73 147.407 152.89C146.951 153.049 146.423 153.129 145.821 153.129H144.967V156H143.271V147.065H145.89C146.468 147.065 146.979 147.129 147.421 147.257C147.868 147.38 148.241 147.562 148.542 147.804C148.847 148.045 149.077 148.344 149.232 148.699C149.392 149.05 149.472 149.453 149.472 149.909ZM147.708 150.025C147.708 149.788 147.669 149.574 147.592 149.383C147.519 149.187 147.405 149.021 147.25 148.884C147.1 148.747 146.908 148.642 146.676 148.569C146.443 148.496 146.168 148.46 145.849 148.46H144.967V151.734H145.903C146.195 151.734 146.452 151.696 146.676 151.618C146.899 151.536 147.086 151.42 147.236 151.27C147.391 151.119 147.507 150.939 147.585 150.729C147.667 150.52 147.708 150.285 147.708 150.025ZM153.238 147.64H151.276V146.341H154.947V154.701H156.95V156H151.037V154.701H153.238V147.64ZM163.048 156L163.007 155.091C162.861 155.246 162.708 155.389 162.549 155.521C162.389 155.649 162.214 155.761 162.022 155.856C161.831 155.952 161.621 156.025 161.394 156.075C161.17 156.13 160.924 156.157 160.655 156.157C160.3 156.157 159.988 156.105 159.719 156C159.45 155.895 159.224 155.749 159.042 155.562C158.86 155.376 158.721 155.15 158.625 154.886C158.534 154.621 158.488 154.33 158.488 154.011C158.488 153.683 158.557 153.38 158.693 153.102C158.835 152.824 159.047 152.584 159.329 152.384C159.616 152.183 159.972 152.026 160.396 151.912C160.824 151.798 161.325 151.741 161.899 151.741H162.809V151.324C162.809 151.146 162.784 150.987 162.733 150.846C162.683 150.7 162.601 150.577 162.487 150.477C162.378 150.376 162.234 150.299 162.057 150.244C161.879 150.189 161.66 150.162 161.4 150.162C160.99 150.162 160.585 150.21 160.184 150.306C159.787 150.397 159.402 150.527 159.028 150.695V149.362C159.361 149.23 159.744 149.121 160.177 149.034C160.614 148.948 161.068 148.904 161.537 148.904C162.052 148.904 162.494 148.954 162.863 149.055C163.232 149.15 163.535 149.296 163.772 149.492C164.014 149.688 164.192 149.934 164.306 150.23C164.42 150.522 164.477 150.864 164.477 151.256V156H163.048ZM162.809 152.931H161.79C161.507 152.931 161.268 152.958 161.072 153.013C160.876 153.067 160.717 153.143 160.594 153.238C160.471 153.334 160.38 153.446 160.32 153.573C160.266 153.696 160.238 153.828 160.238 153.97C160.238 154.252 160.329 154.469 160.512 154.619C160.694 154.765 160.942 154.838 161.257 154.838C161.489 154.838 161.731 154.754 161.981 154.585C162.232 154.416 162.508 154.175 162.809 153.86V152.931ZM170.567 155.241C170.326 155.843 170.073 156.369 169.809 156.82C169.549 157.276 169.262 157.654 168.947 157.955C168.633 158.26 168.282 158.488 167.895 158.639C167.512 158.794 167.081 158.871 166.603 158.871C166.489 158.871 166.363 158.864 166.227 158.851C166.094 158.841 165.958 158.826 165.816 158.803V157.388C165.871 157.397 165.933 157.406 166.001 157.415C166.074 157.429 166.149 157.438 166.227 157.442C166.304 157.451 166.382 157.458 166.459 157.463C166.541 157.467 166.616 157.47 166.685 157.47C166.876 157.47 167.054 157.433 167.218 157.36C167.382 157.287 167.532 157.185 167.669 157.053C167.81 156.925 167.938 156.77 168.052 156.588C168.166 156.41 168.266 156.214 168.353 156L165.598 149.055H167.457L168.899 152.992L169.33 154.264L169.754 153.047L171.21 149.055H173.001L170.567 155.241ZM180.138 151.994C180.138 152.108 180.133 152.256 180.124 152.438C180.119 152.621 180.11 152.792 180.097 152.951H175.53C175.53 153.257 175.576 153.525 175.667 153.758C175.763 153.99 175.895 154.186 176.063 154.346C176.237 154.501 176.442 154.619 176.679 154.701C176.92 154.783 177.187 154.824 177.479 154.824C177.816 154.824 178.176 154.799 178.559 154.749C178.946 154.694 179.347 154.608 179.762 154.489V155.815C179.584 155.866 179.39 155.911 179.181 155.952C178.971 155.993 178.757 156.03 178.538 156.062C178.319 156.093 178.098 156.116 177.875 156.13C177.652 156.148 177.435 156.157 177.226 156.157C176.697 156.157 176.223 156.082 175.804 155.932C175.384 155.781 175.029 155.56 174.737 155.269C174.446 154.972 174.222 154.608 174.067 154.175C173.912 153.742 173.835 153.241 173.835 152.671C173.835 152.106 173.912 151.593 174.067 151.133C174.222 150.668 174.441 150.271 174.724 149.943C175.006 149.611 175.348 149.355 175.749 149.178C176.155 148.995 176.606 148.904 177.103 148.904C177.595 148.904 178.03 148.982 178.408 149.137C178.786 149.287 179.103 149.499 179.358 149.772C179.614 150.046 179.807 150.372 179.939 150.75C180.072 151.128 180.138 151.543 180.138 151.994ZM178.442 151.755C178.447 151.481 178.413 151.244 178.34 151.044C178.267 150.839 178.167 150.67 178.039 150.538C177.916 150.406 177.77 150.308 177.602 150.244C177.438 150.18 177.26 150.148 177.068 150.148C176.649 150.148 176.305 150.29 176.036 150.572C175.767 150.85 175.608 151.244 175.558 151.755H178.442ZM186.256 151.755C186.265 151.495 186.251 151.274 186.215 151.092C186.183 150.91 186.128 150.759 186.051 150.641C185.978 150.522 185.887 150.436 185.777 150.381C185.668 150.326 185.543 150.299 185.401 150.299C185.155 150.299 184.9 150.401 184.636 150.606C184.376 150.807 184.089 151.14 183.774 151.604V156H182.065V149.055H183.576L183.638 150.066C183.752 149.889 183.879 149.729 184.021 149.588C184.166 149.447 184.326 149.326 184.499 149.226C184.677 149.121 184.873 149.041 185.087 148.986C185.301 148.932 185.536 148.904 185.791 148.904C186.142 148.904 186.452 148.966 186.721 149.089C186.994 149.207 187.222 149.385 187.404 149.622C187.591 149.859 187.728 150.158 187.814 150.518C187.906 150.873 187.944 151.285 187.931 151.755H186.256Z" fill="black"/>
<rect x="91.5" y="31.5" width="93" height="93" rx="1.5" fill="#FFF9D7" stroke="black" stroke-width="3"/>
<g opacity="0.4">
<path d="M115.5 98.625C111.99 98.625 105 100.38 105 103.875V106.5H126V103.875C126 100.38 119.01 98.625 115.5 98.625ZM108.51 103.5C109.77 102.63 112.815 101.625 115.5 101.625C118.185 101.625 121.23 102.63 122.49 103.5H108.51ZM115.5 96C118.395 96 120.75 93.645 120.75 90.75C120.75 87.855 118.395 85.5 115.5 85.5C112.605 85.5 110.25 87.855 110.25 90.75C110.25 93.645 112.605 96 115.5 96ZM115.5 88.5C116.745 88.5 117.75 89.505 117.75 90.75C117.75 91.995 116.745 93 115.5 93C114.255 93 113.25 91.995 113.25 90.75C113.25 89.505 114.255 88.5 115.5 88.5ZM126.06 98.715C127.8 99.975 129 101.655 129 103.875V106.5H135V103.875C135 100.845 129.75 99.12 126.06 98.715V98.715ZM124.5 96C127.395 96 129.75 93.645 129.75 90.75C129.75 87.855 127.395 85.5 124.5 85.5C123.69 85.5 122.94 85.695 122.25 86.025C123.195 87.36 123.75 88.995 123.75 90.75C123.75 92.505 123.195 94.14 122.25 95.475C122.94 95.805 123.69 96 124.5 96Z" fill="black"/>
</g>
<path d="M156 66C151.965 66 147.345 67.92 147 69H165C164.7 67.935 160.05 66 156 66Z" fill="#E2D176"/>
<path d="M156 57C157.657 57 159 55.6569 159 54C159 52.3431 157.657 51 156 51C154.343 51 153 52.3431 153 54C153 55.6569 154.343 57 156 57Z" fill="#E2D176"/>
<path d="M156 63C151.995 63 144 65.01 144 69V72H168V69C168 65.01 160.005 63 156 63ZM147 69C147.33 67.92 151.965 66 156 66C160.05 66 164.7 67.935 165 69H147ZM156 60C159.315 60 162 57.315 162 54C162 50.685 159.315 48 156 48C152.685 48 150 50.685 150 54C150 57.315 152.685 60 156 60ZM156 51C157.65 51 159 52.35 159 54C159 55.65 157.65 57 156 57C154.35 57 153 55.65 153 54C153 52.35 154.35 51 156 51Z" fill="black"/>
<path d="M300.677 156V147.065H302.386V154.558H306.159V156H300.677ZM312.065 147.154C312.065 147.305 312.038 147.446 311.983 147.578C311.929 147.71 311.851 147.826 311.751 147.927C311.655 148.022 311.541 148.1 311.409 148.159C311.277 148.214 311.133 148.241 310.979 148.241C310.824 148.241 310.678 148.214 310.541 148.159C310.409 148.1 310.293 148.022 310.192 147.927C310.097 147.826 310.021 147.71 309.967 147.578C309.912 147.446 309.885 147.305 309.885 147.154C309.885 147.004 309.912 146.863 309.967 146.73C310.021 146.598 310.097 146.482 310.192 146.382C310.293 146.282 310.409 146.204 310.541 146.149C310.678 146.09 310.824 146.061 310.979 146.061C311.133 146.061 311.277 146.09 311.409 146.149C311.541 146.204 311.655 146.282 311.751 146.382C311.851 146.482 311.929 146.598 311.983 146.73C312.038 146.863 312.065 147.004 312.065 147.154ZM310.22 150.354H308.258V149.055H311.929V154.701H313.932V156H308.019V154.701H310.22V150.354ZM320.576 156V151.27C320.576 151.096 320.572 150.946 320.562 150.818C320.553 150.686 320.535 150.577 320.508 150.49C320.48 150.404 320.439 150.34 320.385 150.299C320.335 150.253 320.264 150.23 320.173 150.23C320.032 150.23 319.893 150.326 319.756 150.518C319.619 150.709 319.464 151.035 319.291 151.495V156H317.862V151.27C317.862 151.096 317.858 150.946 317.849 150.818C317.84 150.686 317.821 150.577 317.794 150.49C317.767 150.404 317.726 150.34 317.671 150.299C317.616 150.253 317.543 150.23 317.452 150.23C317.334 150.23 317.201 150.326 317.056 150.518C316.91 150.709 316.748 151.035 316.57 151.495V156H315.128V149.055H316.365L316.393 150.066C316.493 149.861 316.593 149.686 316.693 149.54C316.794 149.394 316.901 149.276 317.015 149.185C317.129 149.089 317.249 149.021 317.377 148.979C317.509 148.938 317.657 148.918 317.821 148.918C318.209 148.918 318.503 149.021 318.703 149.226C318.908 149.426 319.024 149.706 319.052 150.066C319.161 149.861 319.268 149.686 319.373 149.54C319.482 149.394 319.594 149.276 319.708 149.185C319.826 149.089 319.952 149.021 320.084 148.979C320.221 148.938 320.371 148.918 320.535 148.918C321.041 148.918 321.415 149.096 321.656 149.451C321.898 149.802 322.019 150.324 322.019 151.017V156H320.576ZM327.46 147.154C327.46 147.305 327.433 147.446 327.378 147.578C327.323 147.71 327.246 147.826 327.146 147.927C327.05 148.022 326.936 148.1 326.804 148.159C326.672 148.214 326.528 148.241 326.373 148.241C326.218 148.241 326.072 148.214 325.936 148.159C325.803 148.1 325.687 148.022 325.587 147.927C325.491 147.826 325.416 147.71 325.361 147.578C325.307 147.446 325.279 147.305 325.279 147.154C325.279 147.004 325.307 146.863 325.361 146.73C325.416 146.598 325.491 146.482 325.587 146.382C325.687 146.282 325.803 146.204 325.936 146.149C326.072 146.09 326.218 146.061 326.373 146.061C326.528 146.061 326.672 146.09 326.804 146.149C326.936 146.204 327.05 146.282 327.146 146.382C327.246 146.482 327.323 146.598 327.378 146.73C327.433 146.863 327.46 147.004 327.46 147.154ZM325.614 150.354H323.652V149.055H327.323V154.701H329.326V156H323.413V154.701H325.614V150.354ZM336.798 155.932C336.497 156 336.194 156.055 335.889 156.096C335.583 156.137 335.294 156.157 335.021 156.157C334.565 156.157 334.171 156.109 333.838 156.014C333.51 155.918 333.236 155.772 333.018 155.576C332.803 155.38 332.644 155.132 332.539 154.831C332.439 154.526 332.389 154.163 332.389 153.744V150.354H330.522V149.055H332.389V147.277L334.098 146.833V149.055H336.798V150.354H334.098V153.621C334.098 154.018 334.189 154.318 334.371 154.523C334.553 154.724 334.859 154.824 335.287 154.824C335.561 154.824 335.827 154.801 336.087 154.756C336.347 154.71 336.584 154.658 336.798 154.599V155.932ZM344.816 151.994C344.816 152.108 344.812 152.256 344.803 152.438C344.798 152.621 344.789 152.792 344.775 152.951H340.209C340.209 153.257 340.255 153.525 340.346 153.758C340.441 153.99 340.574 154.186 340.742 154.346C340.915 154.501 341.12 154.619 341.357 154.701C341.599 154.783 341.866 154.824 342.157 154.824C342.494 154.824 342.854 154.799 343.237 154.749C343.625 154.694 344.026 154.608 344.44 154.489V155.815C344.263 155.866 344.069 155.911 343.859 155.952C343.65 155.993 343.436 156.03 343.217 156.062C342.998 156.093 342.777 156.116 342.554 156.13C342.33 156.148 342.114 156.157 341.904 156.157C341.376 156.157 340.902 156.082 340.482 155.932C340.063 155.781 339.708 155.56 339.416 155.269C339.124 154.972 338.901 154.608 338.746 154.175C338.591 153.742 338.514 153.241 338.514 152.671C338.514 152.106 338.591 151.593 338.746 151.133C338.901 150.668 339.12 150.271 339.402 149.943C339.685 149.611 340.027 149.355 340.428 149.178C340.833 148.995 341.285 148.904 341.781 148.904C342.273 148.904 342.709 148.982 343.087 149.137C343.465 149.287 343.782 149.499 344.037 149.772C344.292 150.046 344.486 150.372 344.618 150.75C344.75 151.128 344.816 151.543 344.816 151.994ZM343.121 151.755C343.126 151.481 343.091 151.244 343.019 151.044C342.946 150.839 342.845 150.67 342.718 150.538C342.595 150.406 342.449 150.308 342.28 150.244C342.116 150.18 341.938 150.148 341.747 150.148C341.328 150.148 340.984 150.29 340.715 150.572C340.446 150.85 340.286 151.244 340.236 151.755H343.121ZM350.832 156L350.791 154.975C350.645 155.152 350.495 155.314 350.34 155.46C350.185 155.606 350.019 155.731 349.841 155.836C349.663 155.936 349.472 156.014 349.267 156.068C349.066 156.128 348.843 156.157 348.597 156.157C348.187 156.157 347.822 156.075 347.503 155.911C347.184 155.747 346.915 155.515 346.696 155.214C346.482 154.909 346.318 154.539 346.204 154.106C346.09 153.674 346.033 153.19 346.033 152.657C346.033 152.019 346.122 151.468 346.3 151.003C346.482 150.534 346.733 150.146 347.052 149.841C347.371 149.531 347.749 149.303 348.187 149.157C348.624 149.007 349.1 148.932 349.615 148.932C349.788 148.932 349.962 148.943 350.135 148.966C350.312 148.989 350.47 149.018 350.606 149.055V146.341H352.274V156H350.832ZM347.783 152.582C347.783 152.965 347.808 153.293 347.858 153.566C347.913 153.835 347.991 154.056 348.091 154.229C348.196 154.403 348.323 154.53 348.474 154.612C348.624 154.69 348.795 154.729 348.986 154.729C349.269 154.729 349.538 154.615 349.793 154.387C350.048 154.159 350.319 153.847 350.606 153.45V150.415C350.474 150.365 350.31 150.324 350.114 150.292C349.923 150.26 349.729 150.244 349.533 150.244C349.264 150.244 349.023 150.299 348.809 150.408C348.594 150.518 348.41 150.673 348.255 150.873C348.104 151.074 347.988 151.32 347.906 151.611C347.824 151.898 347.783 152.222 347.783 152.582ZM363.875 148.487V150.962H367.252V152.343H363.875V156H362.166V147.065H367.443V148.487H363.875ZM375.605 151.994C375.605 152.108 375.601 152.256 375.592 152.438C375.587 152.621 375.578 152.792 375.564 152.951H370.998C370.998 153.257 371.044 153.525 371.135 153.758C371.23 153.99 371.363 154.186 371.531 154.346C371.704 154.501 371.91 154.619 372.146 154.701C372.388 154.783 372.655 154.824 372.946 154.824C373.284 154.824 373.644 154.799 374.026 154.749C374.414 154.694 374.815 154.608 375.229 154.489V155.815C375.052 155.866 374.858 155.911 374.648 155.952C374.439 155.993 374.225 156.03 374.006 156.062C373.787 156.093 373.566 156.116 373.343 156.13C373.119 156.148 372.903 156.157 372.693 156.157C372.165 156.157 371.691 156.082 371.271 155.932C370.852 155.781 370.497 155.56 370.205 155.269C369.913 154.972 369.69 154.608 369.535 154.175C369.38 153.742 369.303 153.241 369.303 152.671C369.303 152.106 369.38 151.593 369.535 151.133C369.69 150.668 369.909 150.271 370.191 149.943C370.474 149.611 370.816 149.355 371.217 149.178C371.622 148.995 372.074 148.904 372.57 148.904C373.062 148.904 373.498 148.982 373.876 149.137C374.254 149.287 374.571 149.499 374.826 149.772C375.081 150.046 375.275 150.372 375.407 150.75C375.539 151.128 375.605 151.543 375.605 151.994ZM373.91 151.755C373.915 151.481 373.881 151.244 373.808 151.044C373.735 150.839 373.634 150.67 373.507 150.538C373.384 150.406 373.238 150.308 373.069 150.244C372.905 150.18 372.728 150.148 372.536 150.148C372.117 150.148 371.773 150.29 371.504 150.572C371.235 150.85 371.076 151.244 371.025 151.755H373.91ZM381.607 156L381.566 155.091C381.421 155.246 381.268 155.389 381.108 155.521C380.949 155.649 380.773 155.761 380.582 155.856C380.391 155.952 380.181 156.025 379.953 156.075C379.73 156.13 379.484 156.157 379.215 156.157C378.859 156.157 378.547 156.105 378.278 156C378.009 155.895 377.784 155.749 377.602 155.562C377.419 155.376 377.28 155.15 377.185 154.886C377.093 154.621 377.048 154.33 377.048 154.011C377.048 153.683 377.116 153.38 377.253 153.102C377.394 152.824 377.606 152.584 377.889 152.384C378.176 152.183 378.531 152.026 378.955 151.912C379.383 151.798 379.885 151.741 380.459 151.741H381.368V151.324C381.368 151.146 381.343 150.987 381.293 150.846C381.243 150.7 381.161 150.577 381.047 150.477C380.938 150.376 380.794 150.299 380.616 150.244C380.438 150.189 380.22 150.162 379.96 150.162C379.55 150.162 379.144 150.21 378.743 150.306C378.347 150.397 377.962 150.527 377.588 150.695V149.362C377.921 149.23 378.303 149.121 378.736 149.034C379.174 148.948 379.627 148.904 380.097 148.904C380.612 148.904 381.054 148.954 381.423 149.055C381.792 149.15 382.095 149.296 382.332 149.492C382.574 149.688 382.751 149.934 382.865 150.23C382.979 150.522 383.036 150.864 383.036 151.256V156H381.607ZM381.368 152.931H380.35C380.067 152.931 379.828 152.958 379.632 153.013C379.436 153.067 379.276 153.143 379.153 153.238C379.03 153.334 378.939 153.446 378.88 153.573C378.825 153.696 378.798 153.828 378.798 153.97C378.798 154.252 378.889 154.469 379.071 154.619C379.254 154.765 379.502 154.838 379.816 154.838C380.049 154.838 380.29 154.754 380.541 154.585C380.792 154.416 381.067 154.175 381.368 153.86V152.931ZM390.679 155.932C390.378 156 390.075 156.055 389.77 156.096C389.464 156.137 389.175 156.157 388.901 156.157C388.446 156.157 388.051 156.109 387.719 156.014C387.391 155.918 387.117 155.772 386.898 155.576C386.684 155.38 386.525 155.132 386.42 154.831C386.32 154.526 386.27 154.163 386.27 153.744V150.354H384.403V149.055H386.27V147.277L387.979 146.833V149.055H390.679V150.354H387.979V153.621C387.979 154.018 388.07 154.318 388.252 154.523C388.434 154.724 388.74 154.824 389.168 154.824C389.441 154.824 389.708 154.801 389.968 154.756C390.228 154.71 390.465 154.658 390.679 154.599V155.932ZM394.302 149.055V153.58C394.302 153.958 394.372 154.245 394.514 154.441C394.655 154.633 394.869 154.729 395.156 154.729C395.434 154.729 395.701 154.615 395.956 154.387C396.216 154.154 396.489 153.842 396.776 153.45V149.055H398.444V156H397.002L396.961 154.975C396.815 155.152 396.667 155.314 396.517 155.46C396.366 155.606 396.202 155.731 396.024 155.836C395.851 155.936 395.66 156.014 395.45 156.068C395.245 156.128 395.017 156.157 394.767 156.157C394.411 156.157 394.099 156.1 393.83 155.986C393.566 155.868 393.345 155.701 393.167 155.487C392.989 155.273 392.855 155.018 392.764 154.722C392.677 154.421 392.634 154.086 392.634 153.717V149.055H394.302ZM404.815 151.755C404.825 151.495 404.811 151.274 404.774 151.092C404.743 150.91 404.688 150.759 404.61 150.641C404.537 150.522 404.446 150.436 404.337 150.381C404.228 150.326 404.102 150.299 403.961 150.299C403.715 150.299 403.46 150.401 403.195 150.606C402.936 150.807 402.648 151.14 402.334 151.604V156H400.625V149.055H402.136L402.197 150.066C402.311 149.889 402.439 149.729 402.58 149.588C402.726 149.447 402.885 149.326 403.059 149.226C403.236 149.121 403.432 149.041 403.646 148.986C403.861 148.932 404.095 148.904 404.351 148.904C404.701 148.904 405.011 148.966 405.28 149.089C405.554 149.207 405.782 149.385 405.964 149.622C406.151 149.859 406.287 150.158 406.374 150.518C406.465 150.873 406.504 151.285 406.49 151.755H404.815ZM414.092 151.994C414.092 152.108 414.087 152.256 414.078 152.438C414.074 152.621 414.064 152.792 414.051 152.951H409.484C409.484 153.257 409.53 153.525 409.621 153.758C409.717 153.99 409.849 154.186 410.018 154.346C410.191 154.501 410.396 154.619 410.633 154.701C410.874 154.783 411.141 154.824 411.433 154.824C411.77 154.824 412.13 154.799 412.513 154.749C412.9 154.694 413.301 154.608 413.716 154.489V155.815C413.538 155.866 413.344 155.911 413.135 155.952C412.925 155.993 412.711 156.03 412.492 156.062C412.273 156.093 412.052 156.116 411.829 156.13C411.606 156.148 411.389 156.157 411.18 156.157C410.651 156.157 410.177 156.082 409.758 155.932C409.339 155.781 408.983 155.56 408.691 155.269C408.4 154.972 408.176 154.608 408.021 154.175C407.867 153.742 407.789 153.241 407.789 152.671C407.789 152.106 407.867 151.593 408.021 151.133C408.176 150.668 408.395 150.271 408.678 149.943C408.96 149.611 409.302 149.355 409.703 149.178C410.109 148.995 410.56 148.904 411.057 148.904C411.549 148.904 411.984 148.982 412.362 149.137C412.741 149.287 413.057 149.499 413.312 149.772C413.568 150.046 413.761 150.372 413.894 150.75C414.026 151.128 414.092 151.543 414.092 151.994ZM412.396 151.755C412.401 151.481 412.367 151.244 412.294 151.044C412.221 150.839 412.121 150.67 411.993 150.538C411.87 150.406 411.724 150.308 411.556 150.244C411.392 150.18 411.214 150.148 411.022 150.148C410.603 150.148 410.259 150.29 409.99 150.572C409.721 150.85 409.562 151.244 409.512 151.755H412.396ZM429.459 153.3C429.459 153.787 429.368 154.211 429.186 154.571C429.008 154.931 428.757 155.23 428.434 155.467C428.11 155.699 427.725 155.872 427.278 155.986C426.832 156.1 426.344 156.157 425.815 156.157C425.346 156.157 424.893 156.13 424.455 156.075C424.018 156.021 423.585 155.929 423.156 155.802V154.141C423.366 154.214 423.585 154.282 423.812 154.346C424.04 154.41 424.268 154.466 424.496 154.517C424.729 154.562 424.959 154.599 425.187 154.626C425.414 154.653 425.635 154.667 425.85 154.667C426.169 154.667 426.44 154.64 426.663 154.585C426.886 154.53 427.069 154.455 427.21 154.359C427.351 154.264 427.454 154.15 427.518 154.018C427.581 153.885 427.613 153.74 427.613 153.58C427.613 153.361 427.549 153.179 427.422 153.033C427.299 152.883 427.135 152.751 426.93 152.637C426.725 152.523 426.49 152.42 426.226 152.329C425.966 152.238 425.699 152.14 425.426 152.035C425.157 151.93 424.89 151.812 424.626 151.68C424.366 151.548 424.134 151.383 423.929 151.188C423.724 150.992 423.557 150.759 423.43 150.49C423.307 150.217 423.245 149.889 423.245 149.506C423.245 149.155 423.309 148.822 423.437 148.508C423.564 148.193 423.765 147.92 424.038 147.688C424.312 147.451 424.662 147.264 425.091 147.127C425.519 146.986 426.036 146.915 426.643 146.915C426.82 146.915 427.005 146.924 427.196 146.942C427.392 146.956 427.584 146.977 427.771 147.004C427.962 147.027 428.144 147.056 428.317 147.093C428.495 147.125 428.657 147.159 428.803 147.195V148.733C428.657 148.679 428.497 148.629 428.324 148.583C428.151 148.537 427.971 148.499 427.784 148.467C427.602 148.43 427.417 148.403 427.23 148.385C427.044 148.367 426.866 148.357 426.697 148.357C426.401 148.357 426.15 148.382 425.945 148.433C425.74 148.478 425.572 148.544 425.439 148.631C425.307 148.713 425.212 148.815 425.152 148.938C425.093 149.062 425.063 149.198 425.063 149.349C425.063 149.535 425.125 149.697 425.248 149.834C425.376 149.966 425.542 150.087 425.747 150.196C425.957 150.301 426.191 150.401 426.451 150.497C426.715 150.588 426.984 150.688 427.258 150.798C427.536 150.903 427.805 151.023 428.064 151.16C428.329 151.297 428.563 151.463 428.769 151.659C428.978 151.855 429.145 152.088 429.268 152.356C429.395 152.621 429.459 152.935 429.459 153.3ZM437.382 152.404C437.382 153.042 437.291 153.594 437.108 154.059C436.931 154.523 436.68 154.911 436.356 155.221C436.037 155.526 435.659 155.754 435.222 155.904C434.784 156.05 434.308 156.123 433.793 156.123C433.62 156.123 433.447 156.112 433.273 156.089C433.1 156.066 432.943 156.036 432.802 156V158.714H431.134V149.055H432.576L432.617 150.08C432.758 149.902 432.904 149.741 433.055 149.595C433.21 149.449 433.376 149.326 433.554 149.226C433.731 149.121 433.923 149.041 434.128 148.986C434.333 148.932 434.563 148.904 434.818 148.904C435.229 148.904 435.593 148.986 435.912 149.15C436.231 149.314 436.498 149.549 436.712 149.854C436.931 150.155 437.097 150.522 437.211 150.955C437.325 151.383 437.382 151.867 437.382 152.404ZM435.632 152.473C435.632 152.09 435.604 151.764 435.55 151.495C435.495 151.226 435.415 151.005 435.311 150.832C435.21 150.659 435.085 150.534 434.935 150.456C434.789 150.374 434.62 150.333 434.429 150.333C434.146 150.333 433.875 150.447 433.615 150.675C433.36 150.903 433.089 151.213 432.802 151.604V154.64C432.934 154.69 433.096 154.731 433.287 154.763C433.483 154.795 433.681 154.811 433.882 154.811C434.146 154.811 434.385 154.756 434.6 154.646C434.818 154.537 435.003 154.382 435.153 154.182C435.308 153.981 435.427 153.737 435.509 153.45C435.591 153.159 435.632 152.833 435.632 152.473ZM443.302 151.755C443.311 151.495 443.297 151.274 443.261 151.092C443.229 150.91 443.174 150.759 443.097 150.641C443.024 150.522 442.933 150.436 442.823 150.381C442.714 150.326 442.589 150.299 442.447 150.299C442.201 150.299 441.946 150.401 441.682 150.606C441.422 150.807 441.135 151.14 440.82 151.604V156H439.111V149.055H440.622L440.684 150.066C440.798 149.889 440.925 149.729 441.066 149.588C441.212 149.447 441.372 149.326 441.545 149.226C441.723 149.121 441.919 149.041 442.133 148.986C442.347 148.932 442.582 148.904 442.837 148.904C443.188 148.904 443.498 148.966 443.767 149.089C444.04 149.207 444.268 149.385 444.45 149.622C444.637 149.859 444.774 150.158 444.86 150.518C444.951 150.873 444.99 151.285 444.977 151.755H443.302ZM452.578 151.994C452.578 152.108 452.574 152.256 452.564 152.438C452.56 152.621 452.551 152.792 452.537 152.951H447.971C447.971 153.257 448.016 153.525 448.107 153.758C448.203 153.99 448.335 154.186 448.504 154.346C448.677 154.501 448.882 154.619 449.119 154.701C449.361 154.783 449.627 154.824 449.919 154.824C450.256 154.824 450.616 154.799 450.999 154.749C451.386 154.694 451.787 154.608 452.202 154.489V155.815C452.024 155.866 451.831 155.911 451.621 155.952C451.411 155.993 451.197 156.03 450.979 156.062C450.76 156.093 450.539 156.116 450.315 156.13C450.092 156.148 449.876 156.157 449.666 156.157C449.137 156.157 448.663 156.082 448.244 155.932C447.825 155.781 447.469 155.56 447.178 155.269C446.886 154.972 446.663 154.608 446.508 154.175C446.353 153.742 446.275 153.241 446.275 152.671C446.275 152.106 446.353 151.593 446.508 151.133C446.663 150.668 446.882 150.271 447.164 149.943C447.447 149.611 447.788 149.355 448.189 149.178C448.595 148.995 449.046 148.904 449.543 148.904C450.035 148.904 450.47 148.982 450.849 149.137C451.227 149.287 451.544 149.499 451.799 149.772C452.054 150.046 452.248 150.372 452.38 150.75C452.512 151.128 452.578 151.543 452.578 151.994ZM450.883 151.755C450.887 151.481 450.853 151.244 450.78 151.044C450.707 150.839 450.607 150.67 450.479 150.538C450.356 150.406 450.211 150.308 450.042 150.244C449.878 150.18 449.7 150.148 449.509 150.148C449.09 150.148 448.745 150.29 448.477 150.572C448.208 150.85 448.048 151.244 447.998 151.755H450.883ZM458.58 156L458.539 155.091C458.393 155.246 458.241 155.389 458.081 155.521C457.922 155.649 457.746 155.761 457.555 155.856C457.363 155.952 457.154 156.025 456.926 156.075C456.702 156.13 456.456 156.157 456.188 156.157C455.832 156.157 455.52 156.105 455.251 156C454.982 155.895 454.757 155.749 454.574 155.562C454.392 155.376 454.253 155.15 454.157 154.886C454.066 154.621 454.021 154.33 454.021 154.011C454.021 153.683 454.089 153.38 454.226 153.102C454.367 152.824 454.579 152.584 454.861 152.384C455.148 152.183 455.504 152.026 455.928 151.912C456.356 151.798 456.857 151.741 457.432 151.741H458.341V151.324C458.341 151.146 458.316 150.987 458.266 150.846C458.215 150.7 458.133 150.577 458.02 150.477C457.91 150.376 457.767 150.299 457.589 150.244C457.411 150.189 457.192 150.162 456.933 150.162C456.522 150.162 456.117 150.21 455.716 150.306C455.319 150.397 454.934 150.527 454.561 150.695V149.362C454.893 149.23 455.276 149.121 455.709 149.034C456.146 148.948 456.6 148.904 457.069 148.904C457.584 148.904 458.026 148.954 458.396 149.055C458.765 149.15 459.068 149.296 459.305 149.492C459.546 149.688 459.724 149.934 459.838 150.23C459.952 150.522 460.009 150.864 460.009 151.256V156H458.58ZM458.341 152.931H457.322C457.04 152.931 456.8 152.958 456.604 153.013C456.409 153.067 456.249 153.143 456.126 153.238C456.003 153.334 455.912 153.446 455.853 153.573C455.798 153.696 455.771 153.828 455.771 153.97C455.771 154.252 455.862 154.469 456.044 154.619C456.226 154.765 456.475 154.838 456.789 154.838C457.021 154.838 457.263 154.754 457.514 154.585C457.764 154.416 458.04 154.175 458.341 153.86V152.931ZM466.291 156L466.25 154.975C466.104 155.152 465.954 155.314 465.799 155.46C465.644 155.606 465.478 155.731 465.3 155.836C465.122 155.936 464.931 156.014 464.726 156.068C464.525 156.128 464.302 156.157 464.056 156.157C463.646 156.157 463.281 156.075 462.962 155.911C462.643 155.747 462.374 155.515 462.155 155.214C461.941 154.909 461.777 154.539 461.663 154.106C461.549 153.674 461.492 153.19 461.492 152.657C461.492 152.019 461.581 151.468 461.759 151.003C461.941 150.534 462.192 150.146 462.511 149.841C462.83 149.531 463.208 149.303 463.646 149.157C464.083 149.007 464.559 148.932 465.074 148.932C465.247 148.932 465.421 148.943 465.594 148.966C465.771 148.989 465.929 149.018 466.065 149.055V146.341H467.733V156H466.291ZM463.242 152.582C463.242 152.965 463.267 153.293 463.317 153.566C463.372 153.835 463.45 154.056 463.55 154.229C463.655 154.403 463.782 154.53 463.933 154.612C464.083 154.69 464.254 154.729 464.445 154.729C464.728 154.729 464.997 154.615 465.252 154.387C465.507 154.159 465.778 153.847 466.065 153.45V150.415C465.933 150.365 465.769 150.324 465.573 150.292C465.382 150.26 465.188 150.244 464.992 150.244C464.723 150.244 464.482 150.299 464.268 150.408C464.053 150.518 463.869 150.673 463.714 150.873C463.563 151.074 463.447 151.32 463.365 151.611C463.283 151.898 463.242 152.222 463.242 152.582Z" fill="black"/>
<rect x="337.5" y="31.5" width="93" height="93" rx="1.5" fill="#FFF9D7" stroke="black" stroke-width="3"/>
<g opacity="0.5">
<path d="M361.5 103.5H358.5V93H361.5V103.5ZM367.5 103.5H364.5V88.5H367.5V103.5ZM373.5 103.5H370.5V97.5H373.5V103.5ZM376.5 106.5H355.5V85.5H376.5V106.5ZM376.5 82.5H355.5C353.85 82.5 352.5 83.85 352.5 85.5V106.5C352.5 108.15 353.85 109.5 355.5 109.5H376.5C378.15 109.5 379.5 108.15 379.5 106.5V85.5C379.5 83.85 378.15 82.5 376.5 82.5Z" fill="black"/>
</g>
<g opacity="0.5">
<path d="M414 82.5H391.5C389.85 82.5 388.5 83.85 388.5 85.5V106.5C388.5 108.15 389.85 109.5 391.5 109.5H414C415.65 109.5 417 108.15 417 106.5V85.5C417 83.85 415.65 82.5 414 82.5ZM414 85.5V90H391.5V85.5H414ZM406.5 106.5H399V93H406.5V106.5ZM391.5 93H396V106.5H391.5V93ZM409.5 106.5V93H414V106.5H409.5Z" fill="black"/>
</g>
<path d="M389.925 52.5L389.04 51.525L387.18 49.5H380.82L378.975 51.525L378.075 52.5H372V70.5H396V52.5H389.925ZM384 69C379.86 69 376.5 65.64 376.5 61.5C376.5 57.36 379.86 54 384 54C388.14 54 391.5 57.36 391.5 61.5C391.5 65.64 388.14 69 384 69Z" fill="#E2D176"/>
<path d="M396 49.5H391.245L388.5 46.5H379.5L376.755 49.5H372C370.35 49.5 369 50.85 369 52.5V70.5C369 72.15 370.35 73.5 372 73.5H396C397.65 73.5 399 72.15 399 70.5V52.5C399 50.85 397.65 49.5 396 49.5ZM396 70.5H372V52.5H378.075L378.96 51.525L380.82 49.5H387.18L389.04 51.525L389.925 52.5H396V70.5ZM384 54C379.86 54 376.5 57.36 376.5 61.5C376.5 65.64 379.86 69 384 69C388.14 69 391.5 65.64 391.5 61.5C391.5 57.36 388.14 54 384 54ZM384 66C381.525 66 379.5 63.975 379.5 61.5C379.5 59.025 381.525 57 384 57C386.475 57 388.5 59.025 388.5 61.5C388.5 63.975 386.475 66 384 66Z" fill="black"/>
<path d="M595.138 153.3C595.138 153.787 595.047 154.211 594.864 154.571C594.687 154.931 594.436 155.23 594.112 155.467C593.789 155.699 593.404 155.872 592.957 155.986C592.51 156.1 592.023 156.157 591.494 156.157C591.025 156.157 590.571 156.13 590.134 156.075C589.696 156.021 589.263 155.929 588.835 155.802V154.141C589.045 154.214 589.263 154.282 589.491 154.346C589.719 154.41 589.947 154.466 590.175 154.517C590.407 154.562 590.637 154.599 590.865 154.626C591.093 154.653 591.314 154.667 591.528 154.667C591.847 154.667 592.118 154.64 592.342 154.585C592.565 154.53 592.747 154.455 592.889 154.359C593.03 154.264 593.132 154.15 593.196 154.018C593.26 153.885 593.292 153.74 593.292 153.58C593.292 153.361 593.228 153.179 593.101 153.033C592.978 152.883 592.813 152.751 592.608 152.637C592.403 152.523 592.169 152.42 591.904 152.329C591.645 152.238 591.378 152.14 591.104 152.035C590.836 151.93 590.569 151.812 590.305 151.68C590.045 151.548 589.812 151.383 589.607 151.188C589.402 150.992 589.236 150.759 589.108 150.49C588.985 150.217 588.924 149.889 588.924 149.506C588.924 149.155 588.988 148.822 589.115 148.508C589.243 148.193 589.443 147.92 589.717 147.688C589.99 147.451 590.341 147.264 590.77 147.127C591.198 146.986 591.715 146.915 592.321 146.915C592.499 146.915 592.684 146.924 592.875 146.942C593.071 146.956 593.262 146.977 593.449 147.004C593.641 147.027 593.823 147.056 593.996 147.093C594.174 147.125 594.336 147.159 594.481 147.195V148.733C594.336 148.679 594.176 148.629 594.003 148.583C593.83 148.537 593.65 148.499 593.463 148.467C593.281 148.43 593.096 148.403 592.909 148.385C592.722 148.367 592.545 148.357 592.376 148.357C592.08 148.357 591.829 148.382 591.624 148.433C591.419 148.478 591.25 148.544 591.118 148.631C590.986 148.713 590.89 148.815 590.831 148.938C590.772 149.062 590.742 149.198 590.742 149.349C590.742 149.535 590.804 149.697 590.927 149.834C591.054 149.966 591.221 150.087 591.426 150.196C591.635 150.301 591.87 150.401 592.13 150.497C592.394 150.588 592.663 150.688 592.937 150.798C593.215 150.903 593.483 151.023 593.743 151.16C594.007 151.297 594.242 151.463 594.447 151.659C594.657 151.855 594.823 152.088 594.946 152.356C595.074 152.621 595.138 152.935 595.138 153.3ZM601.167 156L601.126 155.091C600.98 155.246 600.827 155.389 600.668 155.521C600.508 155.649 600.333 155.761 600.142 155.856C599.95 155.952 599.741 156.025 599.513 156.075C599.289 156.13 599.043 156.157 598.774 156.157C598.419 156.157 598.107 156.105 597.838 156C597.569 155.895 597.343 155.749 597.161 155.562C596.979 155.376 596.84 155.15 596.744 154.886C596.653 154.621 596.607 154.33 596.607 154.011C596.607 153.683 596.676 153.38 596.812 153.102C596.954 152.824 597.166 152.584 597.448 152.384C597.735 152.183 598.091 152.026 598.515 151.912C598.943 151.798 599.444 151.741 600.019 151.741H600.928V151.324C600.928 151.146 600.903 150.987 600.853 150.846C600.802 150.7 600.72 150.577 600.606 150.477C600.497 150.376 600.354 150.299 600.176 150.244C599.998 150.189 599.779 150.162 599.52 150.162C599.109 150.162 598.704 150.21 598.303 150.306C597.906 150.397 597.521 150.527 597.147 150.695V149.362C597.48 149.23 597.863 149.121 598.296 149.034C598.733 148.948 599.187 148.904 599.656 148.904C600.171 148.904 600.613 148.954 600.982 149.055C601.352 149.15 601.655 149.296 601.892 149.492C602.133 149.688 602.311 149.934 602.425 150.23C602.539 150.522 602.596 150.864 602.596 151.256V156H601.167ZM600.928 152.931H599.909C599.627 152.931 599.387 152.958 599.191 153.013C598.995 153.067 598.836 153.143 598.713 153.238C598.59 153.334 598.499 153.446 598.439 153.573C598.385 153.696 598.357 153.828 598.357 153.97C598.357 154.252 598.449 154.469 598.631 154.619C598.813 154.765 599.062 154.838 599.376 154.838C599.608 154.838 599.85 154.754 600.101 154.585C600.351 154.416 600.627 154.175 600.928 153.86V152.931ZM606.752 147.64H604.79V146.341H608.461V154.701H610.464V156H604.551V154.701H606.752V147.64ZM618.257 151.994C618.257 152.108 618.252 152.256 618.243 152.438C618.239 152.621 618.229 152.792 618.216 152.951H613.649C613.649 153.257 613.695 153.525 613.786 153.758C613.882 153.99 614.014 154.186 614.183 154.346C614.356 154.501 614.561 154.619 614.798 154.701C615.039 154.783 615.306 154.824 615.598 154.824C615.935 154.824 616.295 154.799 616.678 154.749C617.065 154.694 617.466 154.608 617.881 154.489V155.815C617.703 155.866 617.509 155.911 617.3 155.952C617.09 155.993 616.876 156.03 616.657 156.062C616.438 156.093 616.217 156.116 615.994 156.13C615.771 156.148 615.554 156.157 615.345 156.157C614.816 156.157 614.342 156.082 613.923 155.932C613.504 155.781 613.148 155.56 612.856 155.269C612.565 154.972 612.341 154.608 612.187 154.175C612.032 153.742 611.954 153.241 611.954 152.671C611.954 152.106 612.032 151.593 612.187 151.133C612.341 150.668 612.56 150.271 612.843 149.943C613.125 149.611 613.467 149.355 613.868 149.178C614.274 148.995 614.725 148.904 615.222 148.904C615.714 148.904 616.149 148.982 616.527 149.137C616.906 149.287 617.222 149.499 617.478 149.772C617.733 150.046 617.926 150.372 618.059 150.75C618.191 151.128 618.257 151.543 618.257 151.994ZM616.562 151.755C616.566 151.481 616.532 151.244 616.459 151.044C616.386 150.839 616.286 150.67 616.158 150.538C616.035 150.406 615.889 150.308 615.721 150.244C615.557 150.18 615.379 150.148 615.188 150.148C614.768 150.148 614.424 150.29 614.155 150.572C613.886 150.85 613.727 151.244 613.677 151.755H616.562ZM625.633 153.956C625.633 154.353 625.544 154.692 625.366 154.975C625.193 155.253 624.961 155.48 624.669 155.658C624.382 155.831 624.054 155.957 623.685 156.034C623.32 156.116 622.946 156.157 622.563 156.157C622.053 156.157 621.593 156.132 621.183 156.082C620.772 156.036 620.385 155.968 620.021 155.877V154.373C620.449 154.551 620.875 154.681 621.299 154.763C621.727 154.84 622.131 154.879 622.509 154.879C622.946 154.879 623.272 154.811 623.486 154.674C623.705 154.533 623.814 154.35 623.814 154.127C623.814 154.022 623.792 153.926 623.746 153.84C623.701 153.753 623.614 153.671 623.486 153.594C623.363 153.512 623.188 153.43 622.96 153.348C622.732 153.261 622.434 153.165 622.064 153.061C621.723 152.965 621.422 152.858 621.162 152.739C620.907 152.616 620.695 152.473 620.526 152.309C620.358 152.145 620.23 151.955 620.144 151.741C620.062 151.522 620.021 151.267 620.021 150.976C620.021 150.693 620.084 150.426 620.212 150.176C620.34 149.925 620.529 149.706 620.779 149.52C621.035 149.328 621.351 149.178 621.729 149.068C622.108 148.959 622.55 148.904 623.056 148.904C623.493 148.904 623.881 148.927 624.218 148.973C624.555 149.018 624.854 149.068 625.113 149.123V150.483C624.717 150.356 624.343 150.267 623.992 150.217C623.646 150.162 623.302 150.135 622.96 150.135C622.618 150.135 622.342 150.196 622.133 150.319C621.928 150.442 621.825 150.613 621.825 150.832C621.825 150.937 621.846 151.03 621.887 151.112C621.928 151.194 622.007 151.274 622.126 151.352C622.249 151.429 622.418 151.511 622.632 151.598C622.851 151.68 623.138 151.771 623.493 151.871C623.894 151.985 624.231 152.108 624.505 152.24C624.778 152.368 624.997 152.514 625.161 152.678C625.33 152.842 625.451 153.029 625.523 153.238C625.596 153.448 625.633 153.687 625.633 153.956ZM641.212 155.651C640.815 155.811 640.43 155.929 640.057 156.007C639.688 156.084 639.302 156.123 638.901 156.123C638.259 156.123 637.689 156.03 637.192 155.843C636.7 155.651 636.283 155.369 635.941 154.995C635.604 154.621 635.347 154.159 635.169 153.607C634.996 153.051 634.909 152.407 634.909 151.673C634.909 150.921 635.005 150.253 635.196 149.67C635.388 149.082 635.661 148.588 636.017 148.187C636.372 147.781 636.803 147.473 637.309 147.264C637.819 147.049 638.391 146.942 639.024 146.942C639.229 146.942 639.421 146.947 639.599 146.956C639.781 146.965 639.959 146.983 640.132 147.011C640.305 147.034 640.48 147.065 640.658 147.106C640.836 147.147 641.021 147.2 641.212 147.264V148.932C640.825 148.749 640.455 148.619 640.104 148.542C639.754 148.465 639.435 148.426 639.147 148.426C638.724 148.426 638.361 148.503 638.061 148.658C637.76 148.809 637.511 149.023 637.315 149.301C637.124 149.574 636.983 149.902 636.892 150.285C636.8 150.663 636.755 151.08 636.755 151.536C636.755 152.019 636.8 152.452 636.892 152.835C636.987 153.213 637.133 153.535 637.329 153.799C637.525 154.063 637.776 154.266 638.081 154.407C638.386 154.544 638.749 154.612 639.168 154.612C639.318 154.612 639.48 154.599 639.653 154.571C639.831 154.539 640.009 154.501 640.187 154.455C640.369 154.405 640.547 154.348 640.72 154.284C640.897 154.216 641.062 154.147 641.212 154.079V155.651ZM647.139 156V151.475C647.139 150.714 646.856 150.333 646.291 150.333C646.008 150.333 645.737 150.447 645.478 150.675C645.222 150.903 644.951 151.213 644.664 151.604V156H642.996V146.341H644.664V148.72L644.582 149.978C644.723 149.809 644.867 149.659 645.013 149.526C645.159 149.39 645.316 149.276 645.484 149.185C645.653 149.093 645.835 149.025 646.031 148.979C646.227 148.929 646.444 148.904 646.681 148.904C647.036 148.904 647.346 148.964 647.61 149.082C647.875 149.196 648.096 149.36 648.273 149.574C648.451 149.784 648.583 150.039 648.67 150.34C648.761 150.636 648.807 150.969 648.807 151.338V156H647.139ZM655.048 156L655.007 155.091C654.861 155.246 654.708 155.389 654.549 155.521C654.389 155.649 654.214 155.761 654.022 155.856C653.831 155.952 653.621 156.025 653.394 156.075C653.17 156.13 652.924 156.157 652.655 156.157C652.3 156.157 651.988 156.105 651.719 156C651.45 155.895 651.224 155.749 651.042 155.562C650.86 155.376 650.721 155.15 650.625 154.886C650.534 154.621 650.488 154.33 650.488 154.011C650.488 153.683 650.557 153.38 650.693 153.102C650.835 152.824 651.047 152.584 651.329 152.384C651.616 152.183 651.972 152.026 652.396 151.912C652.824 151.798 653.325 151.741 653.899 151.741H654.809V151.324C654.809 151.146 654.784 150.987 654.733 150.846C654.683 150.7 654.601 150.577 654.487 150.477C654.378 150.376 654.234 150.299 654.057 150.244C653.879 150.189 653.66 150.162 653.4 150.162C652.99 150.162 652.585 150.21 652.184 150.306C651.787 150.397 651.402 150.527 651.028 150.695V149.362C651.361 149.23 651.744 149.121 652.177 149.034C652.614 148.948 653.068 148.904 653.537 148.904C654.052 148.904 654.494 148.954 654.863 149.055C655.232 149.15 655.535 149.296 655.772 149.492C656.014 149.688 656.192 149.934 656.306 150.23C656.42 150.522 656.477 150.864 656.477 151.256V156H655.048ZM654.809 152.931H653.79C653.507 152.931 653.268 152.958 653.072 153.013C652.876 153.067 652.717 153.143 652.594 153.238C652.471 153.334 652.38 153.446 652.32 153.573C652.266 153.696 652.238 153.828 652.238 153.97C652.238 154.252 652.329 154.469 652.512 154.619C652.694 154.765 652.942 154.838 653.257 154.838C653.489 154.838 653.731 154.754 653.981 154.585C654.232 154.416 654.508 154.175 654.809 153.86V152.931ZM664.119 155.932C663.818 156 663.515 156.055 663.21 156.096C662.905 156.137 662.615 156.157 662.342 156.157C661.886 156.157 661.492 156.109 661.159 156.014C660.831 155.918 660.558 155.772 660.339 155.576C660.125 155.38 659.965 155.132 659.86 154.831C659.76 154.526 659.71 154.163 659.71 153.744V150.354H657.844V149.055H659.71V147.277L661.419 146.833V149.055H664.119V150.354H661.419V153.621C661.419 154.018 661.51 154.318 661.692 154.523C661.875 154.724 662.18 154.824 662.608 154.824C662.882 154.824 663.148 154.801 663.408 154.756C663.668 154.71 663.905 154.658 664.119 154.599V155.932ZM671.816 153.956C671.816 154.353 671.728 154.692 671.55 154.975C671.377 155.253 671.144 155.48 670.853 155.658C670.565 155.831 670.237 155.957 669.868 156.034C669.504 156.116 669.13 156.157 668.747 156.157C668.237 156.157 667.776 156.132 667.366 156.082C666.956 156.036 666.569 155.968 666.204 155.877V154.373C666.632 154.551 667.059 154.681 667.482 154.763C667.911 154.84 668.314 154.879 668.692 154.879C669.13 154.879 669.456 154.811 669.67 154.674C669.889 154.533 669.998 154.35 669.998 154.127C669.998 154.022 669.975 153.926 669.93 153.84C669.884 153.753 669.798 153.671 669.67 153.594C669.547 153.512 669.371 153.43 669.144 153.348C668.916 153.261 668.617 153.165 668.248 153.061C667.906 152.965 667.605 152.858 667.346 152.739C667.09 152.616 666.879 152.473 666.71 152.309C666.541 152.145 666.414 151.955 666.327 151.741C666.245 151.522 666.204 151.267 666.204 150.976C666.204 150.693 666.268 150.426 666.396 150.176C666.523 149.925 666.712 149.706 666.963 149.52C667.218 149.328 667.535 149.178 667.913 149.068C668.291 148.959 668.733 148.904 669.239 148.904C669.677 148.904 670.064 148.927 670.401 148.973C670.739 149.018 671.037 149.068 671.297 149.123V150.483C670.9 150.356 670.527 150.267 670.176 150.217C669.829 150.162 669.485 150.135 669.144 150.135C668.802 150.135 668.526 150.196 668.316 150.319C668.111 150.442 668.009 150.613 668.009 150.832C668.009 150.937 668.029 151.03 668.07 151.112C668.111 151.194 668.191 151.274 668.31 151.352C668.433 151.429 668.601 151.511 668.815 151.598C669.034 151.68 669.321 151.771 669.677 151.871C670.078 151.985 670.415 152.108 670.688 152.24C670.962 152.368 671.181 152.514 671.345 152.678C671.513 152.842 671.634 153.029 671.707 153.238C671.78 153.448 671.816 153.687 671.816 153.956Z" fill="black"/>
<rect x="583.5" y="31.5" width="93" height="93" rx="1.5" fill="#FFF9D7" stroke="black" stroke-width="3"/>
<path d="M624 45H600C598.35 45 597 46.35 597 48V75L603 69H624C625.65 69 627 67.65 627 66V48C627 46.35 625.65 45 624 45ZM624 66H603L600 69V48H624V66ZM604.5 55.5H607.5V58.5H604.5V55.5ZM610.5 55.5H613.5V58.5H610.5V55.5ZM616.5 55.5H619.5V58.5H616.5V55.5Z" fill="black"/>
<path d="M660 103.5L657 100.5H636V82.5H660V103.5ZM643.5 90H640.5V93H643.5V90ZM649.5 90H646.5V93H649.5V90ZM655.5 90H652.5V93H655.5V90Z" fill="#E2D176"/>
<path d="M636 79.5H660C661.65 79.5 663 80.85 663 82.5V109.5L657 103.5H636C634.35 103.5 633 102.15 633 100.5V82.5C633 80.85 634.35 79.5 636 79.5ZM636 100.5H657L660 103.5V82.5H636V100.5ZM655.5 90H652.5V93H655.5V90ZM649.5 90H646.5V93H649.5V90ZM643.5 90H640.5V93H643.5V90Z" fill="black"/>
</svg>
